<?xml version="1.0" encoding="UTF-8"?>
<svg enable-background="new 0 0 489.701 489.701" version="1.1" viewBox="0 0 489.7 489.7" xml:space="preserve" xmlns="http://www.w3.org/2000/svg"><path class="svg-fillable" d="m244.9 0c-9.5 0-17.1 7.7-17.1 17.2v312.3l-77.6-77.6c-6.7-6.7-17.6-6.7-24.3 0s-6.7 17.6 0 24.3l106.9 106.9c3.2 3.2 7.6 5 12.1 5 4.6 0 8.9-1.8 12.1-5l106.9-107c6.7-6.7 6.7-17.6 0-24.3s-17.6-6.7-24.3 0l-77.6 77.6v-312.2c0.1-9.5-7.6-17.2-17.1-17.2z"/><path class="svg-fillable" d="m455.8 472.6c0-9.5-7.7-17.2-17.2-17.2h-387.5c-9.5 0-17.2 7.7-17.2 17.2s7.7 17.1 17.2 17.1h387.6c9.501 0.1 17.1-7.6 17.1-17.1z"/>
</svg>