<?xml version="1.0" encoding="UTF-8"?>
<svg enable-background="new 0 0 489.8 489.8" version="1.1" viewBox="0 0 489.8 489.8" xml:space="preserve" xmlns="http://www.w3.org/2000/svg">
<path class="svg-fillable" d="m489.8 244.9c0-9.5-7.7-17.1-17.1-17.1h-312.3l77.6-77.6c6.7-6.7 6.7-17.6 0-24.3s-17.6-6.7-24.3 0l-106.8 106.9c-6.7 6.7-6.7 17.6 0 24.3l106.8 106.8c3.3 3.3 7.7 5 12.1 5s8.8-1.7 12.1-5c6.7-6.7 6.7-17.6 0-24.3l-77.6-77.6h312.3c9.5 0 17.2-7.6 17.2-17.1z"/>
<path class="svg-fillable" d="m34.3 438.7v-387.6c0-9.5-7.7-17.1-17.1-17.1-9.5 0-17.2 7.7-17.2 17.1v387.6c0 9.5 7.7 17.1 17.2 17.1 9.4 0 17.1-7.6 17.1-17.1z"/>
</svg>