<?xml version="1.0" encoding="UTF-8"?>
<svg enable-background="new 0 0 489.8 489.8" version="1.1" viewBox="0 0 489.8 489.8" xml:space="preserve" xmlns="http://www.w3.org/2000/svg"><path class="svg-fillable" d="m455.5 51.1v387.6c0 9.5 7.7 17.2 17.2 17.2s17.1-7.7 17.1-17.2v-387.6c0-9.5-7.7-17.2-17.1-17.2-9.5 0.1-17.2 7.7-17.2 17.2z"/><path class="svg-fillable" d="m251.8 363.9c3.3 3.3 7.7 5 12.1 5s8.8-1.7 12.1-5l106.9-106.9c6.7-6.7 6.7-17.6 0-24.3l-106.8-106.8c-6.7-6.7-17.6-6.7-24.3 0s-6.7 17.6 0 24.3l77.6 77.6h-312.2c-9.5 0-17.2 7.7-17.2 17.1 0 9.5 7.7 17.2 17.2 17.2h312.3l-77.6 77.6c-6.8 6.7-6.8 17.5-0.1 24.2z"/>
</svg>