<?xml version="1.0" encoding="UTF-8"?>
<svg enable-background="new 0 0 489.8 489.8" version="1.1" viewBox="0 0 489.8 489.8" xml:space="preserve" xmlns="http://www.w3.org/2000/svg">
<path class="svg-fillable" d="m244.9 489.8c9.5 0 17.2-7.7 17.2-17.1v-312.3l77.6 77.6c3.3 3.3 7.7 5 12.1 5s8.8-1.7 12.1-5c6.7-6.7 6.7-17.6 0-24.3l-106.9-106.9c-6.7-6.7-17.6-6.7-24.3 0l-106.8 106.9c-6.7 6.7-6.7 17.6 0 24.3s17.6 6.7 24.3 0l77.6-77.6v312.3c0 9.4 7.6 17.1 17.1 17.1z"/>
<path class="svg-fillable" d="m455.8 17.2c0-9.5-7.7-17.2-17.1-17.2h-387.6c-9.5 0-17.1 7.7-17.1 17.2s7.7 17.2 17.1 17.2h387.6c9.5-0.1 17.1-7.8 17.1-17.2z"/>
</svg>