<svg xmlns="http://www.w3.org/2000/svg" viewBox="0 0 280 27" preserveAspectRatio="xMidYMax slice">
	<path class="jdb-shape-fill" d="M262.5,24.5c-10.8,0-15.7-6.2-15.7-6.2s-3.6,3.5-9.1,0.9c-9-4.1-4.3-13.5-4.3-13.5s-1.2-0.2-1.9-0.9 c-0.6-0.7-0.5-1.9-0.5-1.9s-1,0.5-2.3,0.2c-1.3-0.3-1.6-1.4-1.6-1.4s0.4,3.4-1.5,5c-3.9,3.4-8.2,0.2-8.2,0.2s-0.6,0.7-0.9,0.9 C216.2,8,215.4,8,215.4,8s-4.3,3.6-11.4,2.6c-7-1-10.3-7.9-10.3-7.9s-0.5,3.3-3.9,4.9c-4.7,2.4-7.3,0-7.3,0s2.4,4.1-1.9,6.4 s-6.1-1.2-6.1-1.2s-0.9,0.5-2.1,0.5s-2.3-1.1-2.3-1.1s0.1,0.7-1.1,1.1c-1.2,0.4-2,0-2,0s3.6,6.8-3.5,9c-5.9,1.8-7.8-2.6-8.3-4 c-0.1,0.3-0.4,0.7-0.9,1.1c-1,0.7-1.3,0.5-1.3,0.5s1,4-1.7,5.2c-2.7,1.2-4.1-1.1-4.1-1.1s-3.1,1-5.6-1.4c-2.6-2.4-2.1-5.5-2.1-5.5 s-0.9,0-2.1-0.7c-1.2-0.7-1.4-1.7-1.4-1.7s-1.7,1.2-4.2,1.2c-2.6,0-4.4-1.2-4.4-1.2s-0.7,1.5-2.8,2.4c-2.1,0.9-4,0-4,0 s2.6,5.9-4.6,9.1c-7.2,3.1-12.4-3.3-12.4-3.3s-0.9,0-1.9-0.2c-0.9-0.2-1.5-0.9-1.5-0.9s-2.3,3.3-6.7,2.4c-4.4-0.9-5.6-5.7-5.6-5.7 s-2.8,5-12.1,3.9c-9.4-1.1-11-6-11-6s-1.2,1.4-4,0.7c-0.8-0.2-1.3-0.5-1.8-0.9c-0.9,2.1-2.7,4.9-6.1,4.4c-3.2-0.4-4-2.2-4-2.2 S48.7,19,48,19h-1.4c0,0-0.5,0.9-1.7,1.4c-1.2,0.5-2.4,0-2.4,0s-2.4,1.2-4.6,0c-2.3-1.2-3.1-4.1-3.1-4.1s-1.7,1.4-3.6,0.7 c-1.9-0.7-1.9-2.8-1.9-2.8s-0.5,0.5-1.7,0.2c-1.2-0.2-1.4-0.7-1.4-0.7s-0.7,2.3-2.8,2.8c-2.1,0.5-4.2-0.2-4.2-0.2s-1.7,5-11,6 c-3.8,0.4-6.5-0.2-8.4-1V0h280v16.9c-0.9-0.2-1.6-0.4-1.6-0.4S273.3,24.5,262.5,24.5z"/>
</svg>