<svg xmlns="http://www.w3.org/2000/svg" viewBox="0 0 1280 100" preserveAspectRatio="none">
	<path class="jdb-shape-fill" d="M0,0v59.1c16.7-5.1,35-8.9,54.8-11.3c93.3-11.4,130.3,24.9,232.3,46.4c143,30.2,209.3-79.8,337.8-79.8 c120.7,0,215.8,112.3,347.1,77.3c78.1-20.9,101.4-58,212.6-73.4c37.6-5.2,68.9-7.5,95.5-4.2V0"/>
	<path class="jdb-shape-fill" d="M0,0v55.7c20.1-3.3,40.7-5.8,55.1-7.5c92.3-11.4,129.8,24.9,251.3,46.4c170.8,30.1,187.1-75.5,324.1-75.5 c128.5,0,241,95.7,359.2,60.7C1060,58.9,1091.3,23,1200,7.5c29.2-4.1,55.4-6.2,80-5.5V0" fill-opacity="0.33"/>
	<path class="jdb-shape-fill" d="M0,0v75.4c23.6-9.7,52-16.7,84.7-20.3c91-9.9,127.1,21.5,226.6,40.1c139.4,26.1,203.9-69.1,329.3-69.1 c117.8,0,210.8,97.2,338.9,66.9c76.1-18.1,99.1-50.1,207.3-63.5c36.7-4.6,67.5-6.4,93.2-3.7V0" fill-opacity="0.33"/>
</svg>