<svg xmlns="http://www.w3.org/2000/svg" viewBox="0 0 1000 100" preserveAspectRatio="xMidYMax slice">
	<path class="jdb-shape-fill" d="M473,67.3c-203.9,88.3-263.1-34-320.3,0C66,119.1,0,59.7,0,59.7V0h1000v59.6c0,0-62.1,26.1-94.9,29.3 c-32.8,3.3-62.8-12.3-75.8-22.1C806,49.6,745.3,8.7,694.9,4.7C644.5,0.7,492.4,59,473,67.3z" opacity="0.33"/>
	<path class="jdb-shape-fill" d="M734,67.3c-45.5,0-77.2-23.2-129.1-39c-28.6-8.7-150.3-10.1-254,39s-91.7-34.4-149.2,0 C115.7,118.3,0,39.8,0,39.8V0h1000v36.4c0,0-28.2-18.5-92.1-18.5C810.2,18.1,775.7,67.3,734,67.3z" opacity="0.66"/>
	<path class="jdb-shape-fill" d="M766.1,28.9c-200-57.4-266,65.4-395.1,19.5C242,1.8,242,5.4,184.8,20.6C128,35.8,132.3,44.9,89.8,52.5C28.6,63.6,0,0,0,0 h1000c0,0-9.9,40.9-83.6,48C842.7,55.3,829.6,47,766.1,28.9z"/>
</svg>