<svg xmlns="http://www.w3.org/2000/svg" viewBox="0 0 1280 140" preserveAspectRatio="xMidYMax slice">
   <path class="jdb-shape-fill" d="M646.8,21.4C443,21.4,301.6,140.6,0,140.6v-150h650.2L646.8,21.4z" fill-opacity="0.3"/>
   <path class="jdb-shape-fill" d="M621.2,21.4C417.4,21.4,301.6,130.2,0,130.2V-9.4h621.2V21.4z" fill-opacity="0.4"/>
   <path class="jdb-shape-fill" d="M621.2,21.6c-8-0.2-16.6-0.2-25.6-0.2c-203.8,0-294,98.5-595.6,98.5V-9.4h621.2L621.2,21.6L621.2,21.6z" fill-opacity="0.5"/>
   <path class="jdb-shape-fill" d="M0,109.4V-9.4h1280V6.7c-272.1,0-280.3,49.2-380.3,49.2c-74.1,0-89.6-34.5-329.8-34.5C366.2,21.4,301.6,109.4,0,109.4z"/>
</svg>