<svg xmlns="http://www.w3.org/2000/svg" viewBox="0 0 1280 125.9" preserveAspectRatio="xMidYMax slice">
	<path class="jdb-shape-fill" d="M1280,0c-8.3,72.3-40.5,116-71.5,116c-57.6,0-67.6-57.7-98.6-57.7c-58.9,0-74.5,53.1-113.5,54.7 c-66.6,2.6-126-85.5-192-72.9c-33.4,6.4-62.3,37.9-93.1,59.1c-49.2,33.8-109.8,39.7-154.8-6.1c-11.9-12.1-22.6-27.5-35.8-35.6 C470.3,26.3,415.4,114.8,363,92.6c-27.4-11.6-50.9-52.6-78.7-43.9c-11.8,3.7-32.8,27.3-43.6,35.5c-42.9,32.4-97.5,37.7-140.6,23.8 C57,94.1,20,71.3,0,0H1280z"/>
</svg>