<svg xmlns="http://www.w3.org/2000/svg" viewBox="0 0 1280 128" preserveAspectRatio="none">
	<path class="jdb-shape-fill" d="M1280,0v128c-276.3,0-372.7-70.3-505.1-83.1c-131.7-12.8-234,6.2-340.1,5.8c-102.2-0.5-166.4-19.5-273.6-35.1 C82.9,4.2,23,8.2,0,10.6V0H1280z" fill-opacity="0.33"/>
	<path class="jdb-shape-fill" d="M1280,0v116.2c-276.3,0-372.7-63.8-505.1-75.5c-131.7-11.5-234,5.8-340.1,5.4c-102.2-0.4-166.4-17.7-273.6-31.8 C82.9,4.1,23,7.6,0,9.7V0H1280z" fill-opacity="0.33"/>
	<path class="jdb-shape-fill" d="M1280,0v108.2c-276.3,0-372.7-62.1-505.1-74.8c-131.7-12.6-234,17.3-340.1,16.9c-102.2-0.6-166.4-19.2-273.6-34.8 C82.9,4.2,23,8.2,0,10.5V0H1280z"/>
</svg>