<svg xmlns="http://www.w3.org/2000/svg" viewBox="0 0 1280 128" preserveAspectRatio="none">
	<path class="jdb-shape-fill" d="M1279.8,127.7c-24.6,1-50.9-1.8-80-7c-108.7-19.9-139.9-65.7-210.2-92.3c-118.4-44.7-221.6,77.5-350,77.5 c-137,0-162.6-134.7-333.4-96.3C184.6,37.2,147.3,83.5,55,68.9c-14.4-2.3-34.9-5.5-55-9.6V-0.1h1280v127.8H1279.8L1279.8,127.7z" fill-opacity="0.33"/>
	<path class="jdb-shape-fill" d="M1184.3,107.2c-111-19.9-134.4-67.1-212.6-93.8C840.5-31.4,754.5,112,633.9,112 C505.3,112,429.7-28.3,286.8,10.1C185.1,37.7,148,84,54.8,69.3C35,66.2,16.7,61.2,0,54.8V-0.1h1280v112.6 C1253.2,116.4,1221.9,113.8,1184.3,107.2z" fill-opacity="0.33"/>
	<path class="jdb-shape-fill" d="M1279.9,97.5c-25.7,3.4-56.6,1.1-93.2-4.7c-108.1-17.2-131.1-58.1-207.4-81.2C851.5-27.2,767.5,97,649.8,97 C524.3,97,450.6-24.3,311.2,8.8C211.8,32.5,175.6,72.7,84.6,60C52,55.5,23.7,46.4,0,24.3V-0.1h1280v89.9L1279.9,97.5z"/>
</svg>