<?xml version="1.0" encoding="UTF-8"?>
<!DOCTYPE svg  PUBLIC '-//W3C//DTD SVG 1.1//EN'  'http://www.w3.org/Graphics/SVG/1.1/DTD/svg11.dtd'>
<svg enable-background="new 0 0 500 500" version="1.1" viewBox="0 0 500 500" xml:space="preserve" xmlns="http://www.w3.org/2000/svg">
	<path d="m385.71 268.09v-71.387c0.342-54.425-36.257-90.522-67.704-104.9-9.008-4.118-18.295-7.294-27.732-9.651v-4.556c0-21.882-17.802-39.686-39.684-39.686-21.885 0-39.687 17.804-39.687 39.686v5.247c-8.501 2.293-16.858 5.287-24.971 9.032-34.749 16.017-69.958 54.623-70.275 104.78v71.434c0 50.702-17.906 94.205-53.218 129.3-2.104 2.097-2.865 5.183-1.976 8.016 0.888 2.835 3.293 4.931 6.222 5.438l75.332 13.008c14.032 2.421 26.954 4.405 39.249 6.04 13.85 27.145 41.05 44.567 70.768 44.567 29.724 0 56.933-17.43 70.774-44.591 12.247-1.626 25.104-3.603 39.06-6.017l75.322-13.008c2.93-0.501 5.324-2.604 6.223-5.438 0.898-2.825 0.136-5.919-1.977-8.016-36.971-36.757-55.726-80.26-55.726-129.3zm-158.93-190.49c0-13.128 10.684-23.812 23.813-23.812 13.125 0 23.81 10.684 23.81 23.812v1.445c-15.818-2.27-31.867-2.174-47.623 0.373v-1.818zm25.265 380.98c-20.097 0-38.876-9.984-50.932-26.313 17.739 1.826 34.294 2.747 50.844 2.747 16.611 0 33.225-0.921 51.035-2.77-12.063 16.343-30.849 26.336-50.947 26.336zm107.14-50.378c-15.231 2.628-29.192 4.763-42.385 6.446h-0.055c-5.818 0.737-11.47 1.381-17.002 1.936-0.048 0-0.087 9e-3 -0.134 9e-3 -5.071 0.509-10.025 0.92-14.93 1.269-0.92 0.064-1.843 0.128-2.756 0.184-4.246 0.277-8.444 0.501-12.619 0.659-0.85 0.031-1.706 0.079-2.556 0.103-9.873 0.333-19.613 0.333-29.479 9e-3 -0.881-0.032-1.77-0.08-2.651-0.111-4.103-0.168-8.238-0.374-12.421-0.651-0.993-0.063-1.984-0.127-2.984-0.198-4.754-0.342-9.564-0.738-14.478-1.23-0.183-0.016-0.357-0.031-0.54-0.048-5.493-0.547-11.096-1.19-16.858-1.92h-0.071c-13.24-1.676-27.256-3.826-42.551-6.461l-60.797-10.493c31.613-36.146 47.623-79.673 47.623-129.61v-71.387c0.27-43.139 30.859-76.49 61.044-90.412 8.976-4.135 18.286-7.222 27.755-9.389 0.081-0.017 0.167-9e-3 0.247-0.024 19.565-4.397 40.376-4.595 60.162-0.54 0.104 0.022 0.207-0.025 0.311-9e-3 10.35 2.16 20.541 5.429 30.358 9.914 29.28 13.39 58.704 46.52 58.426 90.419v71.435c0 47.885 17.263 92.41 50.108 129.62l-60.767 10.481z"/>
	<path d="m301.52 127.91c-30.757-14.057-68.417-14.072-98.968 0.016-17.422 8.032-46.972 31.534-47.21 68.688-0.023 4.381 3.5 7.953 7.89 7.984h0.047c4.358 0 7.914-3.516 7.937-7.889 0.183-29.186 23.962-47.9 37.979-54.369 26.431-12.199 59.101-12.168 85.713 0 3.992 1.825 8.699 0.071 10.524-3.914 1.826-3.992 0.065-8.699-3.912-10.516z"/>
	<path d="m50.584 198.98c-3.104-3.104-8.12-3.104-11.223 0-17.343 17.341-26.891 40.423-26.891 65.005 0 24.58 9.548 47.67 26.891 65.005 1.548 1.547 3.58 2.324 5.611 2.324 2.032 0 4.064-0.777 5.611-2.324 3.104-3.104 3.104-8.12 0-11.223-14.342-14.344-22.24-33.44-22.24-53.782 0-20.344 7.897-39.449 22.24-53.782 3.098-3.104 3.098-8.12 1e-3 -11.223z"/>
	<path d="m78.389 313.26c2.032 0 4.063-0.777 5.611-2.326 3.104-3.103 3.104-8.119 0-11.222-20.303-20.303-20.303-53.33 0-73.625 3.104-3.103 3.104-8.12 0-11.223-3.103-3.103-8.12-3.103-11.224 0-26.485 26.487-26.485 69.594 0 96.07 1.548 1.557 3.58 2.326 5.613 2.326z"/>
	<path d="m461.81 198.98c-3.103-3.104-8.119-3.104-11.223 0-3.104 3.103-3.104 8.118 0 11.223 14.342 14.342 22.239 33.438 22.239 53.782 0 20.342-7.897 39.438-22.239 53.782-3.104 3.103-3.104 8.119 0 11.223 1.547 1.547 3.579 2.324 5.612 2.324 2.03 0 4.063-0.777 5.61-2.324 17.343-17.335 26.892-40.424 26.892-65.005s-9.549-47.663-26.891-65.005z"/>
	<path d="m417.17 214.86c-3.104 3.104-3.104 8.12 0 11.223 20.303 20.303 20.303 53.33 0 73.625-3.104 3.103-3.104 8.119 0 11.222 1.547 1.549 3.58 2.326 5.61 2.326 2.033 0 4.064-0.777 5.612-2.326 26.485-26.485 26.485-69.591 0-96.07-3.103-3.103-8.127-3.103-11.222 0z"/>
</svg>