<?xml version="1.0" encoding="utf-8"?>
<!-- Generator: Adobe Illustrator 16.0.0, SVG Export Plug-In . SVG Version: 6.00 Build 0)  -->
<!DOCTYPE svg PUBLIC "-//W3C//DTD SVG 1.1//EN" "http://www.w3.org/Graphics/SVG/1.1/DTD/svg11.dtd">
<svg version="1.1" id="Layer_1" xmlns="http://www.w3.org/2000/svg" xmlns:xlink="http://www.w3.org/1999/xlink" x="0px" y="0px"
	 width="500px" height="500px" viewBox="0 0 500 500" enable-background="new 0 0 500 500" xml:space="preserve">
<g enable-background="new    ">
	<g>
		<path d="M380.582,445.5H318.23V279.061H162.524V445.5H100.7v-371h61.824v148.531H318.23V74.5h62.352V445.5z M334.23,429.5h30.352
			v-339H334.23v148.531H146.524V90.5H116.7v339h29.824V263.061H334.23V429.5z"/>
	</g>
</g>
<g>
	<path d="M269.326,494.236c-1.635,0-3.268-0.1-4.901-0.296c-33.414-4.028-52.198-48.488-52.981-50.381l-0.086-0.217
		c-15.043-39.547-23.938-82.393-26.438-127.349c-1.995-35.877,0.057-73.171,6.099-110.846
		c10.289-64.159,28.368-106.695,29.132-108.475l0.133-0.294c21.189-44.292,42.284-66.046,64.493-66.505
		c23.107-0.484,35.923,23.202,36.457,24.21l-14.119,7.523c-0.088-0.161-8.821-16.064-22.073-15.735
		c-8.629,0.213-26.625,7.938-50.247,57.25c-1.117,2.658-18.39,44.436-28.053,105.024c-9.124,57.208-13.136,143.435,19.524,229.387
		c4.428,10.555,20.135,38.142,40.104,40.524c13.474,1.612,28.073-8.133,43.346-28.958l12.902,9.461
		C305.24,482.26,287.336,494.236,269.326,494.236z"/>
</g>
<g>
	<polygon points="276.57,74.458 272.43,60.042 308.779,49.596 298.273,11.844 312.727,7.822 327.221,59.904 	"/>
</g>
</svg>
