<?xml version="1.0" encoding="utf-8"?>
<!-- Generator: Adobe Illustrator 16.0.0, SVG Export Plug-In . SVG Version: 6.00 Build 0)  -->
<!DOCTYPE svg PUBLIC "-//W3C//DTD SVG 1.1//EN" "http://www.w3.org/Graphics/SVG/1.1/DTD/svg11.dtd">
<svg version="1.1" id="Layer_1" xmlns="http://www.w3.org/2000/svg" xmlns:xlink="http://www.w3.org/1999/xlink" x="0px" y="0px"
	 width="500px" height="500px" viewBox="0 0 500 500" enable-background="new 0 0 500 500" xml:space="preserve">
<polygon fill="none" stroke="#000000" stroke-width="13" stroke-miterlimit="10" points="464.368,233.527 416.5,205.184 
	416.5,262.5 "/>
<polygon fill="none" stroke="#000000" stroke-width="13" stroke-miterlimit="10" points="86.368,262.5 86.368,205.184 38.5,233.527 
	"/>
<rect x="116.667" y="83.5" fill="none" stroke="#000000" stroke-width="15" stroke-miterlimit="10" width="270" height="300"/>
<g>
	<g>
		<circle cx="206.141" cy="441.214" r="4.173"/>
		<path fill="none" stroke="#000000" stroke-width="10" stroke-miterlimit="10" d="M219.492,440.982
			c0,7.373-5.977,13.352-13.35,13.352c-7.374,0-13.351-5.979-13.351-13.352c0-7.371,5.977-13.35,13.351-13.35
			C213.515,427.634,219.492,433.611,219.492,440.982z"/>
	</g>
	<circle cx="243.633" cy="441.661" r="4.173"/>
	<circle cx="273.123" cy="441.661" r="4.172"/>
	<circle cx="306.786" cy="441.66" r="4.173"/>
</g>
<g id="Layer_2">
</g>
<line fill="none" stroke="#000000" stroke-width="14" stroke-miterlimit="10" x1="155.001" y1="129.167" x2="348.334" y2="129.167"/>
<line fill="none" stroke="#000000" stroke-width="14" stroke-miterlimit="10" x1="154.751" y1="202.667" x2="348.084" y2="202.667"/>
<line fill="none" stroke="#000000" stroke-width="14" stroke-miterlimit="10" x1="154.751" y1="238.333" x2="348.084" y2="238.333"/>
<line fill="none" stroke="#000000" stroke-width="14" stroke-miterlimit="10" x1="154.751" y1="275.666" x2="218.5" y2="275.666"/>
<line fill="none" stroke="#000000" stroke-width="14" stroke-miterlimit="10" x1="232.501" y1="275.666" x2="347" y2="275.666"/>
<line fill="none" stroke="#000000" stroke-width="14" stroke-miterlimit="10" x1="155.001" y1="166.667" x2="269.334" y2="166.667"/>
<line fill="none" stroke="#000000" stroke-width="14" stroke-miterlimit="10" x1="282.751" y1="166.667" x2="348.084" y2="166.667"/>
<line fill="none" stroke="#000000" stroke-width="14" stroke-miterlimit="10" x1="155.001" y1="313.166" x2="269.334" y2="313.166"/>
</svg>
