<?xml version="1.0" encoding="utf-8"?>
<!-- Generator: Adobe Illustrator 16.0.0, SVG Export Plug-In . SVG Version: 6.00 Build 0)  -->
<!DOCTYPE svg PUBLIC "-//W3C//DTD SVG 1.1//EN" "http://www.w3.org/Graphics/SVG/1.1/DTD/svg11.dtd">
<svg version="1.1" id="Layer_1" xmlns="http://www.w3.org/2000/svg" xmlns:xlink="http://www.w3.org/1999/xlink" x="0px" y="0px"
	 width="500px" height="500px" viewBox="0 0 500 500" enable-background="new 0 0 500 500" xml:space="preserve">
<g>
	<path d="M248.121,302.5c-27.018,0-49-21.98-49-49c0-27.019,21.981-49,49-49c27.02,0,49.001,21.981,49.001,49
		C297.122,280.52,275.141,302.5,248.121,302.5z M248.121,220.5c-18.196,0-33,14.804-33,33c0,18.195,14.804,33,33,33
		c18.195,0,33.001-14.805,33.001-33C281.122,235.304,266.316,220.5,248.121,220.5z"/>
</g>
<g>
	<rect x="240.122" y="18.5" width="16" height="200"/>
	<rect x="240.122" y="288.5" width="16" height="193"/>
</g>
<g>
	<g>
		<polygon points="226.094,251.559 242.203,235.449 242.203,266.239 		"/>
	</g>
	<g>
		<polygon points="269.148,251.984 253.04,235.877 253.04,266.667 		"/>
	</g>
</g>
<g>
	<path d="M446.31,424H51.88C42.021,424,34,415.979,34,406.12V98.88C34,89.021,42.021,81,51.88,81h394.431
		c9.859,0,17.881,8.021,17.881,17.88v307.24C464.188,415.979,456.168,424,446.31,424z M51.88,96C50.292,96,49,97.292,49,98.88
		v307.24c0,1.588,1.292,2.88,2.88,2.88h394.43c1.589,0,2.881-1.292,2.881-2.88l0.001-307.24c0-1.588-1.292-2.88-2.881-2.88H51.88z"
		/>
</g>
</svg>
