<?xml version="1.0" encoding="utf-8"?>
<!-- Generator: Adobe Illustrator 16.0.0, SVG Export Plug-In . SVG Version: 6.00 Build 0)  -->
<!DOCTYPE svg PUBLIC "-//W3C//DTD SVG 1.1//EN" "http://www.w3.org/Graphics/SVG/1.1/DTD/svg11.dtd">
<svg version="1.1" id="Layer_1" xmlns="http://www.w3.org/2000/svg" xmlns:xlink="http://www.w3.org/1999/xlink" x="0px" y="0px"
	 width="500px" height="500px" viewBox="0 0 500 500" enable-background="new 0 0 500 500" xml:space="preserve">
<g>
	<path d="M250.5,12C119.543,12,13,118.543,13,249.5C13,380.456,119.543,487,250.5,487C381.456,487,488,380.456,488,249.5
		C488,118.543,381.456,12,250.5,12z M250.5,471.167c-122.226,0-221.667-99.441-221.667-221.667S128.274,27.833,250.5,27.833
		S472.167,127.274,472.167,249.5S372.726,471.167,250.5,471.167z"/>
	<path d="M258.416,218v-80.292c0-4.376-3.547-7.915-7.916-7.915s-7.917,3.539-7.917,7.915V218
		c-11.076,2.881-19.744,11.55-22.626,22.625h-56.54c-4.369,0-7.917,3.54-7.917,7.918c0,4.376,3.547,7.915,7.917,7.915h56.54
		c3.541,13.617,15.835,23.75,30.543,23.75c17.464,0,31.667-14.201,31.667-31.665C282.167,233.826,272.032,221.538,258.416,218z
		 M250.5,264.374c-8.732,0-15.833-7.1-15.833-15.831c0-8.734,7.101-15.834,15.833-15.834s15.833,7.1,15.833,15.834
		C266.333,257.274,259.232,264.374,250.5,264.374z"/>
	<path d="M250.5,90.209c4.369,0,7.916-3.539,7.916-7.917v-7.917c0-4.378-3.547-7.917-7.916-7.917s-7.917,3.539-7.917,7.917v7.917
		C242.583,86.67,246.131,90.209,250.5,90.209z"/>
	<path d="M250.5,406.875c-4.369,0-7.917,3.539-7.917,7.917v7.917c0,4.378,3.548,7.916,7.917,7.916s7.916-3.538,7.916-7.916v-7.917
		C258.416,410.414,254.869,406.875,250.5,406.875z"/>
	<path d="M424.665,240.625h-7.914c-4.371,0-7.918,3.54-7.918,7.918c0,4.376,3.547,7.915,7.918,7.915h7.914
		c4.371,0,7.92-3.539,7.92-7.915C432.585,244.165,429.036,240.625,424.665,240.625z"/>
	<path d="M84.25,240.625h-7.917c-4.37,0-7.916,3.54-7.916,7.918c0,4.376,3.546,7.915,7.916,7.915h7.917
		c4.37,0,7.917-3.539,7.917-7.915C92.167,244.165,88.62,240.625,84.25,240.625z"/>
	<path d="M368.054,119.785l-5.597,5.598c-3.094,3.096-3.094,8.098,0,11.194c1.545,1.542,3.571,2.319,5.597,2.319
		c2.028,0,4.054-0.777,5.598-2.319l5.598-5.597c3.096-3.095,3.096-8.099,0-11.195C376.153,116.69,371.151,116.698,368.054,119.785z"
		/>
	<path d="M127.348,360.5l-5.598,5.597c-3.095,3.097-3.095,8.099,0,11.193c1.544,1.544,3.571,2.319,5.598,2.319
		c2.027,0,4.053-0.775,5.597-2.319l5.598-5.598c3.095-3.094,3.095-8.098,0-11.192C135.447,357.403,130.436,357.412,127.348,360.5z"
		/>
	<path d="M373.651,360.5c-3.096-3.097-8.097-3.097-11.194,0c-3.094,3.095-3.094,8.099,0,11.192l5.597,5.598
		c1.545,1.544,3.57,2.319,5.598,2.319c2.028,0,4.055-0.775,5.598-2.319c3.096-3.095,3.096-8.097,0-11.193L373.651,360.5z"/>
	<path d="M132.945,119.785c-3.095-3.095-8.098-3.095-11.195,0c-3.095,3.096-3.095,8.1,0,11.195l5.598,5.597
		c1.543,1.542,3.57,2.319,5.597,2.319c2.026,0,4.054-0.777,5.598-2.319c3.095-3.096,3.095-8.099,0-11.194L132.945,119.785z"/>
</g>
</svg>
