<?xml version="1.0" encoding="UTF-8"?>
<!DOCTYPE svg  PUBLIC '-//W3C//DTD SVG 1.1//EN'  'http://www.w3.org/Graphics/SVG/1.1/DTD/svg11.dtd'>
<svg enable-background="new 0 0 500 500" version="1.1" viewBox="0 0 500 500" xml:space="preserve" xmlns="http://www.w3.org/2000/svg">
<path d="m463.56 128.98h-426.12c-16.741 0-30.438 13.696-30.438 30.437v121.75c0 16.741 13.697 30.438 30.438 30.438h309.18l-3.634-15.219h-305.55c-8.394 0-15.219-6.825-15.219-15.219v-121.75c0-8.393 6.825-15.219 15.219-15.219h426.12c8.393 0 15.219 6.826 15.219 15.219v121.75c0 7.256-5.11 13.316-11.916 14.83l1.361 0.416c5.392 1.639 9.774 5.188 12.632 9.74 7.926-5.51 13.142-14.66 13.142-24.986v-121.75c-1e-3 -16.741-13.697-30.437-30.438-30.437z"/>
<path d="m441.4 333.46 22.724-8.029c3.102-1.095 5.148-4.056 5.072-7.347-0.072-3.283-2.248-6.152-5.391-7.106l-96.943-29.479c-2.611-0.798-5.444-0.13-7.427 1.735-1.986 1.868-2.819 4.66-2.188 7.313l21.965 92.013c0.73 3.063 3.271 5.357 6.396 5.775 3.12 0.403 6.175-1.131 7.685-3.893l11.449-20.96 36.364 37.157c1.488 1.514 3.46 2.286 5.446 2.286 1.719 0 3.449-0.583 4.869-1.766l24.64-20.545c1.632-1.358 2.617-3.341 2.724-5.464 0.107-2.119-0.677-4.188-2.156-5.707l-35.229-35.983zm5.662 51.503-38.641-39.481c-1.442-1.472-3.41-2.287-5.441-2.287-0.347 0-0.696 0.023-1.041 0.073-2.39 0.33-4.48 1.776-5.632 3.889l-6.891 12.611-14.29-59.854 62.092 18.883-12.133 4.288c-2.454 0.867-4.292 2.922-4.877 5.455-0.587 2.531 0.154 5.186 1.975 7.046l37.795 38.61-12.916 10.767z"/>
</svg>