<?xml version="1.0" encoding="utf-8"?>
<!-- Generator: Adobe Illustrator 16.0.0, SVG Export Plug-In . SVG Version: 6.00 Build 0)  -->
<!DOCTYPE svg PUBLIC "-//W3C//DTD SVG 1.1//EN" "http://www.w3.org/Graphics/SVG/1.1/DTD/svg11.dtd">
<svg version="1.1" id="Layer_1" xmlns="http://www.w3.org/2000/svg" xmlns:xlink="http://www.w3.org/1999/xlink" x="0px" y="0px"
	 width="500px" height="500px" viewBox="0 0 500 500" enable-background="new 0 0 500 500" xml:space="preserve">
<path fill="none" stroke="#FF0606" stroke-width="11" stroke-miterlimit="10" d="M144.38,350.461"/>
<path fill="none" stroke="#000000" stroke-width="14" stroke-miterlimit="10" d="M72.065,132.587
	c0-8.868,7.189-16.058,16.058-16.058H460.65c8.866,0,16.056,7.189,16.056,16.058v192.688l0,0c0,8.867-7.188,16.058-16.056,16.058"/>
<path fill="none" stroke="#000000" stroke-width="14" stroke-miterlimit="10" d="M212.834,389.331H41.123
	c-8.868,0-16.058-7.188-16.058-16.058V180.587c0-8.868,7.189-16.058,16.058-16.058H413.65c8.866,0,16.056,7.189,16.056,16.058
	v192.687l0,0c0,8.867-7.188,16.058-16.056,16.058"/>
<polygon fill="none" stroke="#000000" stroke-width="13" stroke-miterlimit="10" points="255.092,306.62 255.033,413.429 
	279.133,391.43 293.284,423.688 315.361,414.006 303.311,387.481 301.213,381.746 334.49,379.63 "/>
<line fill="none" stroke="#000000" stroke-width="14" stroke-miterlimit="10" x1="72.063" y1="131.5" x2="72.063" y2="162.25"/>
<line fill="none" stroke="#000000" stroke-width="14" stroke-miterlimit="10" x1="461.5" y1="341.344" x2="433" y2="341.344"/>
<line fill="none" stroke="#000000" stroke-width="14" stroke-miterlimit="10" x1="209.656" y1="389.344" x2="236.594" y2="389.344"/>
<line fill="none" stroke="#000000" stroke-width="14" stroke-miterlimit="10" x1="356.25" y1="389.344" x2="413.928" y2="389.344"/>
</svg>
