<?xml version="1.0" encoding="utf-8"?>
<!-- Generator: Adobe Illustrator 16.0.0, SVG Export Plug-In . SVG Version: 6.00 Build 0)  -->
<!DOCTYPE svg PUBLIC "-//W3C//DTD SVG 1.1//EN" "http://www.w3.org/Graphics/SVG/1.1/DTD/svg11.dtd">
<svg version="1.1" id="Layer_1" xmlns="http://www.w3.org/2000/svg" xmlns:xlink="http://www.w3.org/1999/xlink" x="0px" y="0px"
	 width="500px" height="500px" viewBox="0 0 500 500" enable-background="new 0 0 500 500" xml:space="preserve">
<path fill="none" stroke="#FF0606" stroke-width="11" stroke-miterlimit="10" d="M-451,337"/>
<path fill="none" stroke="#FF0606" stroke-width="11" stroke-miterlimit="10" d="M155.047,322.965"/>
<path fill="none" stroke="#000000" stroke-width="14" stroke-miterlimit="10" d="M234.247,367.938H35.58
	c-10.262,0-18.58-8.318-18.58-18.579V126.422c0-10.26,8.318-18.579,18.58-18.579h431.012c10.257,0,18.574,8.317,18.574,18.579
	v222.937l0,0c0,10.258-8.315,18.579-18.574,18.579"/>
<polygon fill="none" stroke="#000000" stroke-width="13" stroke-miterlimit="10" points="283.14,272.242 283.072,395.817 
	310.956,370.365 327.328,407.688 352.871,396.485 338.929,365.798 336.501,359.161 375.003,356.713 "/>
<line fill="none" stroke="#000000" stroke-width="14" stroke-miterlimit="10" x1="230.571" y1="367.952" x2="261.738" y2="367.952"/>
<line fill="none" stroke="#000000" stroke-width="14" stroke-miterlimit="10" x1="400.178" y1="367.952" x2="466.912" y2="367.952"/>
</svg>
