<?xml version="1.0" encoding="UTF-8"?>
<!DOCTYPE svg  PUBLIC '-//W3C//DTD SVG 1.1//EN'  'http://www.w3.org/Graphics/SVG/1.1/DTD/svg11.dtd'>
<svg enable-background="new 0 0 500 500" version="1.1" viewBox="0 0 500 500" xml:space="preserve" xmlns="http://www.w3.org/2000/svg">
			<path d="m471.22 27.361h-443.94c-3.964 0-7.176 3.212-7.176 7.175v436.28c0 3.963 3.212 7.177 7.176 7.177h443.94c3.963 0 7.178-3.213 7.178-7.177v-436.28c0-3.962-3.214-7.175-7.178-7.175zm-7.176 436.28h-429.58v-330.08h429.58v330.08zm0-344.44h-429.58v-77.497h429.58v77.497z"/>
			<path d="m402.33 57.978h-84.195c-3.963 0-7.177 3.212-7.177 7.176 0 3.963 3.213 7.176 7.177 7.176h84.195c3.962 0 7.175-3.212 7.175-7.176s-3.213-7.176-7.175-7.176z"/>
			<path d="m440.6 57.978h-15.309c-3.963 0-7.176 3.212-7.176 7.176 0 3.963 3.212 7.176 7.176 7.176h15.309c3.963 0 7.176-3.212 7.176-7.176-3e-3 -3.964-3.215-7.176-7.176-7.176z"/>
			<path d="m256.9 50.324c-3.434 0-6.813 0.579-10.044 1.722-8e-3 2e-3 -0.015 7e-3 -0.022 8e-3 -12.005 4.256-20.071 15.668-20.071 28.408 0 12.738 8.066 24.151 20.069 28.407 8e-3 3e-3 0.016 7e-3 0.022 0.01 3.232 1.142 6.612 1.722 10.044 1.722 16.619 0 30.139-13.52 30.139-30.138s-13.518-30.139-30.137-30.139zm0 45.925c-1.801 0-3.568-0.304-5.264-0.902 0 0-2e-3 -1e-3 -3e-3 -1e-3 -6.293-2.227-10.521-8.208-10.521-14.884s4.228-12.657 10.521-14.885c1e-3 0 3e-3 0 3e-3 -1e-3 1.693-0.598 3.463-0.901 5.264-0.901 8.705 0 15.787 7.083 15.787 15.787s-7.082 15.787-15.787 15.787z"/>
			<path d="m172.71 50.324c-16.618 0-30.138 13.52-30.138 30.138 0 16.617 13.521 30.138 30.138 30.138 16.618 0 30.138-13.52 30.138-30.138 0-16.619-13.52-30.138-30.138-30.138zm0 45.925c-8.705 0-15.787-7.083-15.787-15.787s7.083-15.787 15.787-15.787c8.705 0 15.787 7.083 15.787 15.787s-7.083 15.787-15.787 15.787z"/>
			<path d="m88.513 50.324c-16.618 0-30.138 13.52-30.138 30.138 0 16.617 13.521 30.138 30.138 30.138 16.618 0 30.138-13.52 30.138-30.138-1e-3 -16.619-13.52-30.138-30.138-30.138zm0 45.925c-8.705 0-15.787-7.083-15.787-15.787s7.082-15.787 15.787-15.787 15.787 7.082 15.787 15.786-7.083 15.788-15.787 15.788z"/>
			<path d="m450.16 215.56-75.771-75.772c-2.802-2.802-7.346-2.802-10.146 0l-48.305 48.305h-231.25c-3.962 0-7.176 3.212-7.176 7.176 0 3.963 3.213 7.175 7.176 7.175h216.9l-108.12 108.11h-108.78c-3.962 0-7.176 3.213-7.176 7.177 0 3.963 3.213 7.175 7.176 7.175h94.43l-15.466 15.466c-8e-3 9e-3 -0.015 0.017-0.024 0.024l-0.013 0.014c-0.022 0.021-0.04 0.045-0.061 0.068-0.143 0.146-0.282 0.297-0.413 0.457-0.049 0.057-0.089 0.119-0.137 0.181-0.097 0.125-0.193 0.25-0.282 0.384-0.059 0.087-0.109 0.178-0.164 0.269-0.066 0.108-0.135 0.217-0.195 0.331-0.061 0.113-0.114 0.231-0.168 0.349-0.043 0.094-0.091 0.186-0.13 0.282-0.06 0.146-0.111 0.295-0.162 0.442-0.025 0.073-0.053 0.145-0.077 0.22-0.057 0.189-0.104 0.382-0.146 0.574-8e-3 0.037-0.02 0.071-0.027 0.11l-5e-3 0.021c-2e-3 0.01-3e-3 0.018-4e-3 0.025l-17.778 88.896h-59.178c-3.962 0-7.176 3.213-7.176 7.177 0 3.962 3.213 7.177 7.176 7.177h65.021 0.032 8e-3 8e-3 0.032 5.618c1.914 0 3.649-0.755 4.935-1.978l31.363-6.273c4e-3 0 9e-3 -1e-3 0.014-2e-3l0.029-5e-3 54.077-10.815c6e-3 -1e-3 0.014-3e-3 0.021-3e-3l0.025-6e-3c0.042-9e-3 0.081-0.021 0.123-0.031 0.188-0.041 0.375-0.086 0.56-0.142 0.079-0.023 0.153-0.054 0.231-0.08 0.144-0.05 0.289-0.099 0.431-0.157 0.101-0.042 0.196-0.091 0.294-0.136 0.113-0.054 0.228-0.104 0.337-0.164 0.116-0.063 0.228-0.132 0.339-0.199 0.087-0.054 0.177-0.102 0.261-0.157 0.133-0.09 0.26-0.187 0.386-0.283 0.059-0.045 0.121-0.087 0.18-0.136 0.156-0.13 0.305-0.267 0.45-0.407 0.024-0.024 0.051-0.043 0.073-0.068l0.014-0.014c9e-3 -8e-3 0.017-0.016 0.022-0.022l4.752-4.752 195.84-195.83c2.801-2.807 2.801-7.35-1e-3 -10.153zm-248.64 107.25c1e-3 -2e-3 1e-3 -3e-3 3e-3 -3e-3l52.808-52.809 60.866-60.866 14.209 14.207-136.35 136.35-14.208-14.209 22.676-22.674zm138.03-89.322 16.913 16.913-62.258 62.26-50.024 50.021-24.07 24.071-16.914-16.915 136.35-136.35zm-180.65 197.56 3.378-16.889 13.512 13.511-16.89 3.378zm33.801-6.759-27.041-27.043 7.442-37.209 14.874 14.875 41.937 41.937-37.212 7.44zm150.21-111.63-98.448 98.448-14.208-14.208 24.068-24.07 50.024-50.021 62.259-62.26 14.207 14.206-37.902 37.905zm48.052-48.053-19.28-19.279-27.063-27.062-19.28-19.281 43.976-43.974 65.623 65.623-43.976 43.973z"/>
			<path d="m372.96 174.89c-2.803-2.802-7.346-2.802-10.148 0l-17.222 17.222c-2.802 2.803-2.802 7.346 0 10.147 1.401 1.4 3.238 2.101 5.073 2.101 1.837 0 3.673-0.7 5.074-2.101l17.222-17.223c2.804-2.801 2.804-7.345 1e-3 -10.146z"/>
</svg>