<?xml version="1.0" encoding="utf-8"?>
<!DOCTYPE svg PUBLIC "-//W3C//DTD SVG 1.1//EN" "http://www.w3.org/Graphics/SVG/1.1/DTD/svg11.dtd">
<svg version="1.1" id="Layer_1" xmlns="http://www.w3.org/2000/svg" xmlns:xlink="http://www.w3.org/1999/xlink" x="0px" y="0px"
	 width="500px" height="500px" viewBox="0 0 500 500" enable-background="new 0 0 500 500" xml:space="preserve">
<g>
	<path d="M402.594,432.521h-37.898v-45.478c0-57.538-31.433-109.451-81.209-136.435c49.776-26.984,81.209-78.898,81.209-136.436
		V68.696h37.898c12.538,0,22.739-10.202,22.739-22.739s-10.201-22.739-22.739-22.739H99.405c-12.536,0-22.739,10.202-22.739,22.739
		s10.203,22.739,22.739,22.739h37.899v45.478c0,57.538,31.433,109.451,81.209,136.436c-49.776,26.983-81.209,78.896-81.209,136.435
		v45.478H99.405c-12.536,0-22.739,10.203-22.739,22.739c0,12.537,10.203,22.739,22.739,22.739h303.188
		c12.538,0,22.739-10.202,22.739-22.739C425.333,442.725,415.132,432.521,402.594,432.521z M99.405,53.536
		c-4.176,0-7.579-3.396-7.579-7.58s3.403-7.58,7.579-7.58h303.188c4.177,0,7.58,3.396,7.58,7.58s-3.403,7.58-7.58,7.58h-37.898
		H137.305H99.405z M152.465,114.174V68.696h197.072v45.478c0,56.294-33.283,106.708-84.916,128.855h-27.249
		C185.746,220.881,152.465,170.468,152.465,114.174z M152.465,387.044c0-56.295,33.281-106.708,84.914-128.856h27.249
		c51.626,22.148,84.909,72.562,84.909,128.856v45.478c0-4.184-3.396-7.58-7.58-7.58c-4.185,0-7.58,3.396-7.58,7.58h-15.159
		c0-4.184-3.396-7.58-7.58-7.58c-4.184,0-7.579,3.396-7.579,7.58h-15.16c0-4.184-3.396-7.58-7.579-7.58
		c-4.185,0-7.58,3.396-7.58,7.58H258.58c0-4.184-3.396-7.58-7.58-7.58s-7.579,3.396-7.579,7.58h-15.16
		c0-4.184-3.396-7.58-7.579-7.58c-4.185,0-7.581,3.396-7.581,7.58h-15.158c0-4.184-3.396-7.58-7.581-7.58
		c-4.184,0-7.579,3.396-7.579,7.58h-15.16c0-4.184-3.395-7.58-7.578-7.58c-4.185,0-7.579,3.396-7.579,7.58V387.044z
		 M402.594,462.841H99.405c-4.176,0-7.579-3.396-7.579-7.58s3.403-7.58,7.579-7.58h37.899h227.391h37.898
		c4.177,0,7.58,3.396,7.58,7.58S406.771,462.841,402.594,462.841z"/>
	<circle cx="175.204" cy="417.362" r="7.58"/>
	<circle cx="205.521" cy="417.362" r="7.58"/>
	<circle cx="235.84" cy="417.362" r="7.58"/>
	<circle cx="266.159" cy="417.362" r="7.58"/>
	<circle cx="296.479" cy="417.362" r="7.58"/>
	<circle cx="326.798" cy="417.362" r="7.58"/>
	<circle cx="190.361" cy="402.203" r="7.579"/>
	<circle cx="220.682" cy="402.203" r="7.579"/>
	<circle cx="251" cy="273.348" r="7.579"/>
	<circle cx="205.521" cy="189.971" r="7.58"/>
	<circle cx="235.84" cy="189.971" r="7.58"/>
	<circle cx="266.159" cy="189.971" r="7.58"/>
	<circle cx="296.479" cy="189.971" r="7.58"/>
	<circle cx="281.319" cy="174.811" r="7.58"/>
	<circle cx="296.479" cy="159.652" r="7.579"/>
	<circle cx="220.682" cy="174.811" r="7.58"/>
	<circle cx="251" cy="174.811" r="7.58"/>
	<circle cx="205.521" cy="159.652" r="7.579"/>
	<circle cx="220.682" cy="205.13" r="7.58"/>
	<circle cx="235.84" cy="220.29" r="7.58"/>
	<circle cx="266.159" cy="220.29" r="7.58"/>
	<circle cx="251" cy="205.13" r="7.58"/>
	<circle cx="281.319" cy="205.13" r="7.58"/>
	<circle cx="251" cy="296.087" r="7.579"/>
	<circle cx="251" cy="318.826" r="7.579"/>
	<circle cx="251" cy="341.565" r="7.579"/>
	<circle cx="251" cy="364.305" r="7.58"/>
	<circle cx="251" cy="387.044" r="7.58"/>
	<circle cx="281.319" cy="402.203" r="7.579"/>
	<circle cx="311.638" cy="402.203" r="7.579"/>
</g>
</svg>