<?xml version="1.0" encoding="utf-8"?>
<!-- Generator: Adobe Illustrator 16.0.0, SVG Export Plug-In . SVG Version: 6.00 Build 0)  -->
<!DOCTYPE svg PUBLIC "-//W3C//DTD SVG 1.1//EN" "http://www.w3.org/Graphics/SVG/1.1/DTD/svg11.dtd">
<svg version="1.1" id="Layer_1" xmlns="http://www.w3.org/2000/svg" xmlns:xlink="http://www.w3.org/1999/xlink" x="0px" y="0px"
	 width="500px" height="500px" viewBox="0 0 500 500" enable-background="new 0 0 500 500" xml:space="preserve">
<path fill="none" stroke="#FF0606" stroke-width="11" stroke-miterlimit="10" d="M93.334,396"/>
<path d="M457.396,79.457H40.383c-3.526,0-6.383,3.208-6.383,7.169v307.669c0,3.96,2.856,7.17,6.383,7.17h230.451v-14.339H46.766
	V93.796H451.01v293.33h-22.843v14.339h29.226c3.525,0,6.385-3.209,6.385-7.17V86.626C463.778,82.665,460.921,79.457,457.396,79.457z
	"/>
<polygon fill="none" stroke="#000000" stroke-width="13" stroke-miterlimit="10" points="264.121,212.008 293.947,406.884 
	331.752,359.998 366.604,414.883 404.167,391.028 374.747,346.021 369.313,336.143 429.434,322.957 "/>
<polyline fill="none" stroke="#000000" stroke-width="13" stroke-miterlimit="10" points="39.834,314.5 121.834,211.5 
	186.834,299.5 244.834,249.5 "/>
<circle fill="none" stroke="#000000" stroke-width="13" stroke-miterlimit="10" cx="154.334" cy="152" r="27.5"/>
</svg>
