<?xml version="1.0" encoding="utf-8"?>
<!-- Generator: Adobe Illustrator 16.0.0, SVG Export Plug-In . SVG Version: 6.00 Build 0)  -->
<!DOCTYPE svg PUBLIC "-//W3C//DTD SVG 1.1//EN" "http://www.w3.org/Graphics/SVG/1.1/DTD/svg11.dtd">
<svg version="1.1" id="Layer_1" xmlns="http://www.w3.org/2000/svg" xmlns:xlink="http://www.w3.org/1999/xlink" x="0px" y="0px"
	 width="500px" height="500px" viewBox="0 0 500 500" enable-background="new 0 0 500 500" xml:space="preserve">
<g>
	<path d="M285.414,481.498h-97.358v-202.85h-53.633v-93.161h53.631v-52.313c0-48.026,30.047-104.104,114.762-104.104
		c29.865,0,51.79,2.799,52.706,2.92l8.989,1.169l-2.164,87.181l-9.906-0.091c-0.02,0-22.275-0.211-46.555-0.211
		c-18.068,0-20.465,4.458-20.465,22.195v43.275h79.742l-4.418,93.159h-75.314v202.83H285.414L285.414,481.498z M208.175,461.364
		h57.095V258.526h76.24l2.517-52.906H265.27v-63.407c0-20.937,4.821-42.327,40.596-42.327c14.375,0,28.033,0.07,36.82,0.141
		l1.219-49.011c-8.889-0.796-23.676-1.812-41.109-1.812c-69.766,0-94.63,43.374-94.63,83.971v72.446h-53.629v52.906h53.631v202.838
		H208.175L208.175,461.364z"/>
</g>
</svg>
