<?xml version="1.0" encoding="utf-8"?>
<!-- Generator: Adobe Illustrator 16.0.0, SVG Export Plug-In . SVG Version: 6.00 Build 0)  -->
<!DOCTYPE svg PUBLIC "-//W3C//DTD SVG 1.1//EN" "http://www.w3.org/Graphics/SVG/1.1/DTD/svg11.dtd">
<svg version="1.1" id="Layer_1" xmlns="http://www.w3.org/2000/svg" xmlns:xlink="http://www.w3.org/1999/xlink" x="0px" y="0px"
	 width="500px" height="500px" viewBox="0 0 500 500" enable-background="new 0 0 500 500" xml:space="preserve">
<g>
	<g>
		<g>
			<path d="M181.312,158.176h-45.518c-4.931,0-8.925,3.995-8.925,8.924c0,4.929,3.994,8.925,8.925,8.925h35.491
				c-3.993,15.878-18.392,27.667-35.491,27.667c-20.177,0-36.592-16.414-36.592-36.592c0-20.177,16.416-36.592,36.592-36.592
				c9.773,0,18.963,3.807,25.875,10.719c3.484,3.485,9.136,3.484,12.622,0c3.485-3.485,3.485-9.138-0.001-12.624
				c-10.283-10.282-23.954-15.945-38.497-15.945c-30.021,0-54.443,24.424-54.443,54.443c0,30.02,24.424,54.442,54.444,54.442
				c30.02,0,54.443-24.421,54.443-54.442C190.238,162.171,186.242,158.176,181.312,158.176z"/>
		</g>
	</g>
	<g>
		<g>
			<path d="M372.982,84.274c-29.624,0-53.724,24.101-53.724,53.724c0,29.624,24.1,53.723,53.724,53.723s53.724-24.1,53.724-53.723
				C426.706,108.375,402.606,84.274,372.982,84.274z M372.982,173.87c-19.779,0-35.873-16.092-35.873-35.872
				c0-19.781,16.092-35.874,35.873-35.874s35.873,16.092,35.873,35.874C408.855,157.777,392.764,173.87,372.982,173.87z"/>
		</g>
	</g>
	<g>
		<g>
			<path d="M372.982,27c-39.051,0-73.454,20.276-93.246,50.848H80.705c-23.76,0-43.091,19.331-43.091,43.092v310.095
				c-0.001,23.761,19.332,43.093,43.091,43.093H390.8c23.762,0,43.093-19.332,43.093-43.092V237.78
				c5.338-7.334,11.185-14.496,17.589-21.316c20.957-20.966,32.499-48.82,32.499-78.467C483.98,76.794,434.188,27,372.982,27z
				 M55.464,120.941c0-13.918,11.322-25.242,25.24-25.242h189.664c-5.396,13.042-8.382,27.328-8.382,42.298
				c0,17.662,4.098,34.688,11.84,50L55.464,409.283V120.941z M79.654,456.224c-12.284-0.509-22.311-9.816-23.935-21.787
				l227.743-230.79c3.316,4.502,6.993,8.789,11.022,12.819c3.57,3.803,6.968,7.715,10.202,11.705L79.654,456.224z M315.504,242.625
				c25.277,36.596,38.327,76.607,44.318,99.813l-72.359-71.396L315.504,242.625z M104.676,456.275l132.155-133.922l135.708,133.922
				H104.676z M416.041,431.036c0.001,11.736-8.061,21.598-18.932,24.411l-147.742-145.8l25.557-25.899l141.117,139.239V431.036z
				 M416.043,397.908L416.043,397.908l-34.63-34.169c0.175-0.507,0.308-1.036,0.393-1.582c0.098-0.634,7.637-47.629,34.238-96.127
				L416.043,397.908L416.043,397.908z M438.684,204.015c-0.138,0.138-0.271,0.28-0.399,0.427
				c-36.154,38.586-55.534,86.186-65.303,118.404c-9.767-32.218-29.15-79.818-65.302-118.405c-0.127-0.144-0.26-0.286-0.399-0.425
				c-17.698-17.613-27.445-41.057-27.445-66.018c0-51.362,41.784-93.147,93.146-93.147c51.363,0,93.147,41.785,93.147,93.146
				C466.129,162.956,456.383,186.401,438.684,204.015z"/>
		</g>
	</g>
</g>
</svg>
