<?xml version="1.0" encoding="UTF-8"?>
<!DOCTYPE svg  PUBLIC '-//W3C//DTD SVG 1.1//EN'  'http://www.w3.org/Graphics/SVG/1.1/DTD/svg11.dtd'>
<svg enable-background="new 0 0 500 500" version="1.1" viewBox="0 0 500 500" xml:space="preserve" xmlns="http://www.w3.org/2000/svg">
<path d="m272.03 64.549h-152.24c-4.11 0-7.446 3.331-7.446 7.447 0 4.111 3.336 7.443 7.446 7.443h152.24c4.111 0 7.445-3.332 7.445-7.443 1e-3 -4.116-3.333-7.447-7.445-7.447z"/>
<path d="m272.03 114.16h-23.193c-4.112 0-7.443 3.332-7.443 7.443 0 4.112 3.331 7.447 7.443 7.447h23.193c4.114 0 7.445-3.335 7.445-7.447 1e-3 -4.112-3.333-7.443-7.445-7.443z"/>
<path d="m119.78 129.04h99.27c4.112 0 7.442-3.335 7.442-7.447 0-4.111-3.331-7.443-7.442-7.443h-99.27c-4.11 0-7.446 3.332-7.446 7.443 0 4.112 3.336 7.447 7.446 7.447z"/>
<path d="m444.38 157.78h-25.452v-51.279c0-1.849-0.783-3.626-2.183-4.935l-89.025-83.345c-1.356-1.36-3.289-2.216-5.434-2.216-0.034 0-0.064 4e-3 -0.095 4e-3h-232.38c-11.466 0-20.807 8.737-20.807 19.479v332.08c0 3.848 3.335 6.971 7.446 6.971 4.119 0 7.443-3.123 7.443-6.971v-332.08c0-3.058 2.663-5.537 5.917-5.537h225.03v61.618c0 12.08 10.497 21.907 23.399 21.907h65.798v44.304h-198.2c-2.659 0-52.307 20.371-53.302 21.062-8.045 5.511-6.06 16.886 1.46 19.997 53.257 21.476 49.652 20.278 51.808 20.278h198.23v248.91c0 3.059-2.662 5.539-5.918 5.539h-308.31c-3.254 0-5.917-2.48-5.917-5.539v-72.582c0-3.856-3.324-6.971-7.443-6.971-4.111 0-7.446 3.114-7.446 6.971v72.582c0 10.746 9.341 19.479 20.807 19.479h308.31c11.467 0 20.808-8.733 20.808-19.479v-248.91h25.452c18.056 0 32.761-13.763 32.761-30.667-1e-3 -16.914-14.706-30.67-32.762-30.67zm-106.14-58.243c-4.691 0-8.511-3.576-8.511-7.968v-51.747l63.791 59.715h-55.28zm-139.84 102.04-32.526-13.123 32.526-13.123v26.246zm245.98 3.605h-231.09v-9.76h247.31c-2.831 5.749-9.033 9.76-16.223 9.76zm-231.09-23.699v-9.755h231.09c7.19 0 13.392 4.003 16.223 9.755h-247.31z"/>
</svg>