<?xml version="1.0" encoding="UTF-8"?>
<!DOCTYPE svg  PUBLIC '-//W3C//DTD SVG 1.1//EN'  'http://www.w3.org/Graphics/SVG/1.1/DTD/svg11.dtd'>
<svg enable-background="new 0 0 500 500" version="1.1" viewBox="0 0 500 500" xml:space="preserve" xmlns="http://www.w3.org/2000/svg">
	<path d="m198.42 352.14c-1.854 0-3.723-0.638-5.247-1.936l-52.455-44.666c-1.81-1.542-2.85-3.795-2.85-6.174 0-2.375 1.045-4.628 2.85-6.17l52.455-44.666c3.406-2.903 8.522-2.492 11.426 0.914 2.9 3.411 2.493 8.527-0.918 11.427l-45.204 38.495 45.204 38.495c3.411 2.903 3.818 8.02 0.918 11.426-1.605 1.887-3.886 2.855-6.179 2.855z"/>
	<path d="m301.97 352.14c-2.294 0-4.573-0.968-6.175-2.854-2.904-3.406-2.492-8.522 0.914-11.426l45.203-38.495-45.203-38.495c-3.406-2.899-3.818-8.016-0.914-11.427 2.899-3.406 8.021-3.817 11.422-0.914l52.455 44.666c1.809 1.542 2.85 3.795 2.85 6.17 0 2.379-1.041 4.632-2.85 6.174l-52.455 44.666c-1.525 1.297-3.393 1.935-5.247 1.935z"/>
	<path d="m231.62 385.64c-0.557 0-1.118-0.059-1.683-0.176-4.378-0.923-7.183-5.225-6.26-9.604l32.691-155.22c0.923-4.379 5.221-7.184 9.604-6.261 4.379 0.923 7.184 5.22 6.261 9.604l-32.691 155.22c-0.807 3.818-4.172 6.437-7.922 6.437z"/>
	<path d="m441.26 470.2h-382.15c-30.009 0-54.427-24.413-54.427-54.427v-324.34c0-30.009 24.418-54.427 54.427-54.427h382.15c30.009 0 54.427 24.418 54.427 54.427v324.34c0 30.013-24.418 54.426-54.426 54.426zm-382.15-416.99c-21.07 0-38.214 17.144-38.214 38.214v324.34c0 21.07 17.144 38.215 38.214 38.215h382.15c21.07 0 38.214-17.145 38.214-38.215v-324.34c0-21.07-17.144-38.214-38.214-38.214h-382.15z"/>
	<path d="m487.58 166.8h-474.79c-4.478 0-8.106-3.628-8.106-8.106 0-4.474 3.628-8.106 8.106-8.106h474.79c4.479 0 8.106 3.632 8.106 8.106 0 4.478-3.628 8.106-8.106 8.106z"/>
	<path d="m143.19 128.01c-14.141 0-25.653-11.513-25.653-25.653 0-14.145 11.512-25.653 25.653-25.653 14.145 0 25.653 11.508 25.653 25.653 0 14.14-11.508 25.653-25.653 25.653zm0-35.094c-5.202 0-9.441 4.234-9.441 9.441s4.239 9.44 9.441 9.44c5.207 0 9.44-4.234 9.44-9.44s-4.233-9.441-9.44-9.441z"/>
	<path d="m64.375 127.76c-14.145 0-25.653-11.508-25.653-25.653s11.508-25.653 25.653-25.653 25.653 11.508 25.653 25.653-11.508 25.653-25.653 25.653zm0-35.093c-5.202 0-9.44 4.238-9.44 9.44 0 5.207 4.238 9.44 9.44 9.44 5.207 0 9.44-4.234 9.44-9.44 0-5.202-4.234-9.44-9.44-9.44z"/>
	<path d="m222.01 128.26c-14.14 0-25.648-11.508-25.648-25.653 0-14.141 11.508-25.648 25.648-25.648 14.145 0 25.653 11.508 25.653 25.648 0 14.146-11.508 25.653-25.653 25.653zm0-35.093c-5.202 0-9.436 4.234-9.436 9.44s4.234 9.44 9.436 9.44c5.207 0 9.441-4.234 9.441-9.44s-4.235-9.44-9.441-9.44z"/>
</svg>