<?xml version="1.0" encoding="UTF-8"?>
<!DOCTYPE svg  PUBLIC '-//W3C//DTD SVG 1.1//EN'  'http://www.w3.org/Graphics/SVG/1.1/DTD/svg11.dtd'>
<svg enable-background="new 0 0 500 500" version="1.1" viewBox="0 0 500 500" xml:space="preserve" xmlns="http://www.w3.org/2000/svg">
			<path d="m83.791 256.58c-5.067 0-9.181 4.113-9.181 9.182 0 5.067 4.113 9.181 9.181 9.181s9.181-4.113 9.181-9.181c0-5.069-4.113-9.182-9.181-9.182z"/>
			<path d="m489.58 288.72c0-12.964-6.006-24.545-15.375-32.125 11.938-9.643 17.166-24.565 14.813-39.013-3.193-19.635-21.452-34.44-42.47-34.44h-87.454l2.72-8.169c15.56-46.668 1.109-96.535-33.139-125.71-19.126-16.502-51.761-11-61.785 16.301-0.699 1.901-0.747 3.982-0.14 5.916 7.628 24.259 7.734 40.569 0.373 56.298-7.633 16.314-24.055 33.443-54.91 57.276-7.406 5.719-13.88 9.215-20.141 12.597-9.862 5.326-19.226 10.382-28.906 22.211h-33.476v-9.181c0-5.07-4.11-9.181-9.18-9.181h-91.807c-5.071 0-9.181 4.111-9.181 9.181v238.7c0 5.072 4.11 9.182 9.181 9.182h91.809c5.07 0 9.18-4.109 9.18-9.182v-27.542h51.495c26.691 23.709 60.95 36.724 96.886 36.724h115.11c22.834 0 41.313-18.475 41.313-41.314 0-8.486-2.574-16.382-6.981-22.951h2.391c22.836 0 41.315-18.474 41.315-41.313 0-9.589-3.293-18.418-8.794-25.436 15.687-5.711 27.153-20.814 27.153-38.832zm-378.25 151.48h-73.446v-220.34h73.446v220.34zm336.94-128.53h-88.136c-5.069 0-9.182 4.11-9.182 9.182 0 5.07 4.112 9.181 9.182 9.181h69.773c12.656 0 22.952 10.296 22.952 22.952 0 12.687-10.26 22.951-22.952 22.951h-69.773c-5.069 0-9.182 4.11-9.182 9.182 0 5.07 4.112 9.181 9.182 9.181h33.052c12.654 0 22.951 10.296 22.951 22.951 0 12.688-10.262 22.953-22.951 22.953h-115.11c-32.496 0-63.417-12.164-87.065-34.253-1.701-1.589-3.94-2.47-6.267-2.47h-55.048v-165.26h37.972c2.918 0 5.663-1.387 7.393-3.738 8.282-11.248 15.606-15.205 25.745-20.679 6.584-3.556 14.049-7.587 22.64-14.22 62.857-48.553 77.241-78.301 61.841-130.3 6.087-11.705 21.271-14.862 32.056-5.55 29.262 25.581 39.883 66.962 27.06 105.42l-4.655 13.974h-11.744c-5.069 0-9.182 4.11-9.182 9.181s4.112 9.181 9.182 9.181h118.55c12.114 0 22.582 8.18 24.348 19.029 2.392 14.689-8.896 26.875-22.63 26.875h-88.137c-5.068 0-9.181 4.111-9.181 9.18 0 5.071 4.112 9.182 9.181 9.182h88.137c12.655 0 22.952 10.297 22.952 22.951-3e-3 12.685-10.266 22.951-22.956 22.951z"/>
			<path d="m83.791 293.31c-5.07 0-9.181 4.11-9.181 9.182v91.808c0 5.07 4.11 9.182 9.181 9.182s9.181-4.111 9.181-9.182v-91.809c0-5.071-4.11-9.181-9.181-9.181z"/>
</svg>