<?xml version="1.0" encoding="utf-8"?>
<!-- Generator: Adobe Illustrator 23.0.1, SVG Export Plug-In . SVG Version: 6.00 Build 0)  -->
<svg version="1.1" id="Capa_1" xmlns="http://www.w3.org/2000/svg" xmlns:xlink="http://www.w3.org/1999/xlink" x="0px" y="0px"
	 width="23.3px" height="23.3px" viewBox="0 0 23.3 23.3" style="enable-background:new 0 0 23.3 23.3;" xml:space="preserve">
<g>
	<g>
		<g>
			<g>
				<path d="M22.1,0h-21C0.5,0,0,0.5,0,1.2v21c0,0.6,0.5,1.2,1.2,1.2h21c0.6,0,1.2-0.5,1.2-1.2v-21C23.3,0.5,22.8,0,22.1,0z
					 M22.5,22.1c0,0.2-0.2,0.4-0.4,0.4h-21c-0.2,0-0.4-0.2-0.4-0.4V3.9h21.8L22.5,22.1L22.5,22.1z M22.5,3.1H0.8V1.2
					C0.8,1,1,0.8,1.2,0.8h21c0.2,0,0.4,0.2,0.4,0.4V3.1L22.5,3.1z"/>
				<path d="M2.7,1.6H2.3c-0.2,0-0.4,0.2-0.4,0.4s0.2,0.4,0.4,0.4h0.4c0.2,0,0.4-0.2,0.4-0.4C3.1,1.7,2.9,1.6,2.7,1.6z"/>
				<path d="M4.7,1.6H4.3c-0.2,0-0.4,0.2-0.4,0.4s0.2,0.4,0.4,0.4h0.4C4.9,2.3,5,2.2,5,1.9S4.9,1.6,4.7,1.6z"/>
				<path d="M6.6,1.6H6.2C6,1.6,5.8,1.7,5.8,1.9S6,2.3,6.2,2.3h0.4C6.8,2.3,7,2.2,7,1.9S6.8,1.6,6.6,1.6z"/>
				<path d="M21,1.6h-0.4c-0.2,0-0.4,0.2-0.4,0.4s0.2,0.4,0.4,0.4H21c0.2,0,0.4-0.2,0.4-0.4S21.2,1.6,21,1.6z"/>
				<path d="M3.1,9.7h4.7c0.6,0,1.2-0.5,1.2-1.2V6.2C8.9,5.6,8.4,5,7.8,5H3.1C2.5,5,1.9,5.6,1.9,6.2v2.3C1.9,9.2,2.5,9.7,3.1,9.7z
					 M4.7,5.8h3.1C8,5.8,8.2,6,8.2,6.2v2.3c0,0.2-0.2,0.4-0.4,0.4H4.7V5.8z M2.7,6.2c0-0.2,0.2-0.4,0.4-0.4h0.8v3.1H3.1
					c-0.2,0-0.4-0.2-0.4-0.4L2.7,6.2L2.7,6.2z"/>
				<path d="M3.1,15.5h4.7c0.6,0,1.2-0.5,1.2-1.2V12c0-0.6-0.5-1.2-1.2-1.2H3.1c-0.6,0-1.2,0.5-1.2,1.2v2.3
					C1.9,15,2.5,15.5,3.1,15.5z M4.7,11.7h3.1c0.2,0,0.4,0.2,0.4,0.4v2.3c0,0.2-0.2,0.4-0.4,0.4H4.7V11.7z M2.7,12
					c0-0.2,0.2-0.4,0.4-0.4h0.8v3.1H3.1c-0.2,0-0.4-0.2-0.4-0.4L2.7,12L2.7,12z"/>
				<path d="M3.1,21.4h4.7c0.6,0,1.2-0.5,1.2-1.2v-2.3c0-0.6-0.5-1.2-1.2-1.2H3.1c-0.6,0-1.2,0.5-1.2,1.2v2.3
					C1.9,20.8,2.5,21.4,3.1,21.4z M4.7,17.5h3.1c0.2,0,0.4,0.2,0.4,0.4v2.3c0,0.2-0.2,0.4-0.4,0.4H4.7V17.5z M2.7,17.9
					c0-0.2,0.2-0.4,0.4-0.4h0.8v3.1H3.1c-0.2,0-0.4-0.2-0.4-0.4L2.7,17.9L2.7,17.9z"/>
				<path d="M11.2,7.8h3.6c0.2,0,0.3-0.2,0.3-0.4S15,7,14.8,7h-3.6c-0.2,0-0.3,0.2-0.3,0.4S11,7.8,11.2,7.8z"/>
				<path d="M18,8.4c0.2,0.2,0.4,0.2,0.5,0l1.9-1.9c0.1-0.2,0.1-0.4,0-0.5c-0.1-0.1-0.4-0.2-0.5,0l-1.7,1.7l-0.5-0.5
					c-0.2-0.1-0.4-0.1-0.5,0c-0.1,0.1-0.2,0.4,0,0.5L18,8.4z"/>
				<path d="M18,14.3c0.2,0.2,0.4,0.2,0.5,0l1.9-1.9c0.1-0.2,0.1-0.4,0-0.5c-0.1-0.1-0.4-0.2-0.5,0l-1.7,1.7l-0.5-0.5
					c-0.2-0.1-0.4-0.1-0.5,0c-0.1,0.1-0.2,0.4,0,0.5L18,14.3z"/>
				<path d="M18,20.1c0.2,0.2,0.4,0.2,0.5,0l1.9-1.9c0.1-0.2,0.1-0.4,0-0.5c-0.1-0.1-0.4-0.2-0.5,0l-1.7,1.7l-0.5-0.5
					c-0.2-0.1-0.4-0.1-0.5,0c-0.1,0.1-0.2,0.4,0,0.5L18,20.1z"/>
				<path d="M11.2,13.6h3.6c0.2,0,0.3-0.2,0.3-0.4c0-0.2-0.1-0.4-0.3-0.4h-3.6c-0.2,0-0.3,0.2-0.3,0.4C10.9,13.4,11,13.6,11.2,13.6z
					"/>
				<path d="M11.2,19.4h3.6c0.2,0,0.3-0.2,0.3-0.4s-0.1-0.4-0.3-0.4h-3.6c-0.2,0-0.3,0.2-0.3,0.4S11,19.4,11.2,19.4z"/>
			</g>
		</g>
	</g>
	<path d="M6.8,7.1H6c-0.2,0-0.3,0.1-0.3,0.3S5.8,7.7,6,7.7h0.8c0.2,0,0.3-0.1,0.3-0.3S7,7.1,6.8,7.1z"/>
	<path d="M6.8,12.9H6c-0.2,0-0.3,0.1-0.3,0.3s0.1,0.3,0.3,0.3h0.8c0.2,0,0.3-0.1,0.3-0.3S7,12.9,6.8,12.9z"/>
	<path d="M6.8,18.8H6c-0.2,0-0.3,0.1-0.3,0.3s0.1,0.3,0.3,0.3h0.8c0.2,0,0.3-0.1,0.3-0.3S7,18.8,6.8,18.8z"/>
</g>
</svg>
