<?xml version="1.0" encoding="utf-8"?>
<!-- Generator: Adobe Illustrator 16.0.0, SVG Export Plug-In . SVG Version: 6.00 Build 0)  -->
<!DOCTYPE svg PUBLIC "-//W3C//DTD SVG 1.1//EN" "http://www.w3.org/Graphics/SVG/1.1/DTD/svg11.dtd">
<svg version="1.1" id="Layer_1" xmlns="http://www.w3.org/2000/svg" xmlns:xlink="http://www.w3.org/1999/xlink" x="0px" y="0px"
	 width="500px" height="500px" viewBox="0 0 500 500" enable-background="new 0 0 500 500" xml:space="preserve">
<g>
	<path d="M109.148,36.804c-4.332,0-7.845,3.513-7.845,7.845v227.316c0,4.331,3.513,7.846,7.845,7.846h283.204
		c4.33,0,7.844-3.515,7.844-7.846V44.648c0-4.332-3.514-7.845-7.844-7.845H109.148V36.804z M116.994,52.494h267.512v200.032
		l-81.99-81.99c-3.063-3.065-8.031-3.065-11.093,0l-22.646,22.644l-40.423-40.42c-3.062-3.065-8.031-3.065-11.092,0l-77.795,77.797
		c-3.064,3.063-3.064,8.027,0,11.092c3.063,3.064,8.032,3.064,11.093,0l72.25-72.249l40.42,40.421c3.063,3.065,8.033,3.065,11.094,0
		l22.646-22.646l76.945,76.944h-256.92L116.994,52.494L116.994,52.494z"/>
</g>
<g>
	<path d="M296.834,146.167c-15.072,0-27.334-12.262-27.334-27.333S281.762,91.5,296.834,91.5c15.071,0,27.333,12.262,27.333,27.333
		S311.905,146.167,296.834,146.167z M296.834,105.5c-7.353,0-13.334,5.981-13.334,13.333s5.981,13.333,13.334,13.333
		c7.352,0,13.333-5.981,13.333-13.333S304.186,105.5,296.834,105.5z"/>
</g>
<g>
	<rect x="100.167" y="314.5" width="301.167" height="16"/>
</g>
<g>
	<rect x="100.167" y="360.833" width="155" height="16"/>
</g>
<g>
	<rect x="276.166" y="360.166" width="125.834" height="16"/>
</g>
<g>
	<rect x="100.167" y="406.5" width="301.167" height="16"/>
</g>
<g>
	<rect x="100.167" y="452.833" width="155" height="16"/>
</g>
</svg>
