<?xml version="1.0" encoding="UTF-8"?>
<!DOCTYPE svg  PUBLIC '-//W3C//DTD SVG 1.1//EN'  'http://www.w3.org/Graphics/SVG/1.1/DTD/svg11.dtd'>
<svg enable-background="new 0 0 500 500" version="1.1" viewBox="0 0 500 500" xml:space="preserve" xmlns="http://www.w3.org/2000/svg">
	<path d="m139.27 233.86c28.343 0 51.397-23.054 51.397-51.388 0-28.352-23.054-51.405-51.397-51.405-28.342 0-51.397 23.053-51.397 51.396s23.055 51.397 51.397 51.397zm0-84.335c18.163 0 32.938 14.785 32.938 32.939 0 18.153-14.776 32.938-32.938 32.938-18.163 0-32.939-14.776-32.939-32.93 0-18.153 14.776-32.947 32.939-32.947z"/>
	<path d="m19.292 11.088v479.91h461.45v-479.91h-461.45zm18.458 18.458h424.54v246.67l-95.282-87.345c-1.808-1.651-4.188-2.473-6.645-2.417-2.445 0.111-4.752 1.191-6.404 2.999l-90.391 99-43.773-43.772c-3.451-3.443-8.97-3.618-12.625-0.406l-154.45 135.98h-14.969v-350.71zm424.54 443h-424.54v-73.834h424.54v73.834zm-381.63-92.291 132.2-116.39 95.079 95.068c3.607 3.609 9.44 3.609 13.05 0 3.608-3.607 3.608-9.44 0-13.05l-44.363-44.363 84.731-92.79 100.94 92.521v79.002h-381.63z"/>
</svg>