<?xml version="1.0" encoding="UTF-8"?>
<!DOCTYPE svg  PUBLIC '-//W3C//DTD SVG 1.1//EN'  'http://www.w3.org/Graphics/SVG/1.1/DTD/svg11.dtd'>
<svg enable-background="new 0 0 500 500" version="1.1" viewBox="0 0 500 500" xml:space="preserve" 
	xmlns="http://www.w3.org/2000/svg">
	<path d="m438.38 352.4c5.356-34.667-5.911-69.446-31.058-94.62l-2.563-2.563c-1.306 0.639-2.685 1.066-4.156 1.066-2.517 0-4.92-0.992-6.696-2.771l-44.872-44.905c-2.951-2.955-3.432-7.344-1.647-10.898l-35.342-35.42c-1.602-1.61-3.758-2.474-6.013-2.641l-54.901 54.947c0.167 2.16 0.963 4.292 2.609 5.938l36.702 36.785c0.24-0.019 0.473-0.139 0.702-0.139 2.527 0 4.934 0.99 6.709 2.786l44.815 44.925c2.036 2.037 2.83 4.757 2.627 7.421l3.755 3.747c10.854 10.871 10.9 28.525 0.066 39.358-10.5 10.501-28.828 10.501-39.339-0.01-0.73-0.729-1.619-1.202-2.525-1.629l-57.343 57.473c0.424 0.871 0.898 1.722 1.609 2.442 20.816 20.846 48.497 32.315 77.956 32.315 7.78 0 15.507-0.813 23.073-2.422 9.827 27.569 36.268 46.712 66.226 46.712 38.746 0 70.259-31.568 70.259-70.343 1e-3 -31.48-21.187-58.95-50.653-67.554zm-19.605 118.97c-24.35 0-45.519-17.303-50.32-41.136-0.527-2.627-2.156-4.894-4.449-6.271-1.473-0.882-3.147-1.334-4.831-1.334-0.943 0-1.888 0.148-2.793 0.415-8.698 2.684-17.746 4.044-26.886 4.044-21.208 0-41.3-7.188-57.51-20.408l31.78-31.829c7.56 4.998 16.421 7.681 25.701 7.681 12.498 0 24.247-4.866 33.065-13.701 18.198-18.217 18.16-47.896-0.064-66.134l-88.614-88.825 31.484-31.471 88.568 88.793c22.757 22.761 31.79 55.013 24.183 86.257-0.638 2.599-0.147 5.338 1.362 7.559 1.506 2.22 3.874 3.701 6.522 4.071 25.146 3.534 44.111 25.404 44.111 50.903 2e-3 28.318-23.015 51.386-51.309 51.386z"/>
	<path d="m104.89 257.7 44.839 44.917c2.955 2.971 3.441 7.336 1.66 10.891l35.537 35.544c1.599 1.592 3.742 2.451 5.985 2.629l54.873-54.985c-0.168-2.174-0.982-4.31-2.632-5.967l-36.818-36.837c-2.678 0.181-5.407-0.604-7.35-2.549l-44.868-44.903c-2.034-2.04-2.845-4.756-2.637-7.43l-3.75-3.751c-5.237-5.237-8.12-12.229-8.12-19.687 0-7.476 2.92-14.484 8.208-19.771 10.495-10.515 28.818-10.524 39.333-0.01 0.733 0.731 1.611 1.231 2.522 1.688l57.426-57.449c-0.444-0.901-0.944-1.795-1.693-2.548-20.813-20.836-48.483-32.309-77.901-32.309-5.334 0-10.666 0.389-15.945 1.157-8.915-29.189-35.771-49.502-67.122-49.511-38.751 0-70.268 31.567-70.268 70.351 0 29.828 18.245 55.692 45.408 65.873-7.558 36.285 3.497 74.088 29.938 100.56l2.48 2.48c3.525-1.687 8.063-1.222 10.895 1.618zm-22.863-108.4c0.758-2.512 0.431-5.226-0.898-7.493-1.326-2.263-3.525-3.881-6.082-4.458-23.523-5.334-39.959-25.971-39.959-50.179 0-28.342 23.019-51.403 51.32-51.403 25.303 9e-3 46.592 18.125 50.625 43.067 0.417 2.594 1.908 4.899 4.085 6.355 2.179 1.461 4.857 1.936 7.439 1.355 6.846-1.609 13.886-2.424 20.928-2.424 21.172 0 41.258 7.179 57.467 20.396l-31.793 31.845c-7.563-4.996-16.421-7.675-25.684-7.675-12.499 0-24.252 4.879-33.074 13.717-8.86 8.848-13.74 20.625-13.749 33.147-0.01 12.526 4.843 24.271 13.672 33.094l88.73 88.771-31.441 31.521-88.725-88.744c-23.739-23.746-32.501-58.585-22.861-90.892z"/>
	<path d="m156.12 193.06c-1.66 1.655-2.464 3.798-2.637 5.967-0.208 2.664 0.603 5.38 2.637 7.429l44.868 44.904c1.943 1.935 4.672 2.72 7.35 2.55 2.239-0.144 4.446-0.931 6.055-2.55l36.744-36.756 54.901-54.948 3.737-3.732c10.566-10.567 28.812-10.574 39.281-0.087 10.865 10.855 10.854 28.535 0 39.393-0.738 0.74-1.22 1.609-1.664 2.503-1.776 3.552-1.304 7.927 1.664 10.894l44.855 44.904c1.783 1.781 4.19 2.772 6.717 2.772 1.462 0 2.85-0.427 4.144-1.063 0.915-0.455 1.814-0.979 2.555-1.717 25.914-25.967 37.101-63.01 30.348-98.69 29.575-8.517 50.801-35.961 50.801-67.631 0-38.798-31.532-70.355-70.271-70.355-31.38 0-58.748 21.08-67.427 50.459-6.975-1.365-14.08-2.059-21.224-2.059-29.456 0-57.156 11.496-78.011 32.354l-2.442 2.457-57.426 57.449-35.555 35.553zm108.82-82.072c17.266-17.287 40.211-26.802 64.59-26.802 8.741 0 17.402 1.244 25.749 3.696 2.625 0.786 5.494 0.37 7.815-1.139 2.322-1.502 3.869-3.932 4.249-6.662 3.487-25.257 25.339-44.297 50.847-44.297 28.291 0 51.321 23.061 51.321 51.404 0 25.733-19.143 47.646-44.529 50.973-2.74 0.36-5.172 1.892-6.689 4.196-1.518 2.303-1.952 5.153-1.185 7.808 8.27 28.911 1.804 59.855-16.849 82.906l-31.79-31.826c11.937-18.151 9.939-42.85-5.994-58.805-8.808-8.817-20.52-13.67-32.973-13.67-12.49 0-24.241 4.88-33.123 13.748l-88.684 88.75-31.478-31.5 88.723-88.78z"/>
	<path d="m342.67 318.27c1.665-1.648 2.461-3.785 2.627-5.96 0.203-2.655-0.591-5.375-2.627-7.41l-44.815-44.917c-1.775-1.778-4.182-2.786-6.709-2.786-0.229 0-0.462 0.12-0.702 0.14-2.247 0.176-4.395 1.034-6.004 2.646l-36.657 36.729-54.873 54.994-3.779 3.783c-10.478 10.502-28.848 10.502-39.379-0.056-10.857-10.871-10.857-28.562-0.01-39.412 0.735-0.74 1.211-1.609 1.646-2.507 1.782-3.535 1.295-7.92-1.66-10.882l-44.839-44.915c-2.833-2.842-7.37-3.315-10.914-1.612-0.892 0.426-1.772 0.898-2.493 1.612-25.224 25.266-36.595 61.551-30.73 96.486-27.02 10.251-45.19 36.119-45.19 65.78 0 38.782 31.525 70.333 70.276 70.333 29.833-0.02 55.733-18.394 65.851-45.686 5.884 0.953 11.842 1.441 17.814 1.441 29.455 0 57.117-11.474 77.892-32.289l2.498-2.515 57.351-57.474 35.426-35.523zm-108.68 82.135c-17.186 17.229-40.085 26.721-64.477 26.721-7.457 0-14.894-0.917-22.103-2.702-2.466-0.601-5.08-0.204-7.239 1.128-2.17 1.334-3.705 3.471-4.273 5.941-5.38 23.461-25.967 39.855-50.048 39.876-28.302 0-51.33-23.068-51.33-51.386 0-23.98 16.228-44.559 39.468-50.052 2.47-0.585 4.602-2.138 5.921-4.313 1.314-2.162 1.702-4.771 1.078-7.244-7.124-28.032-0.397-57.944 17.565-80.203l31.776 31.835c-11.917 18.144-9.91 42.847 6.018 58.814 8.858 8.864 20.623 13.748 33.158 13.748 12.505 0 24.241-4.867 33.053-13.692l88.601-88.79 31.438 31.513-88.606 88.806z"/>
</svg>