<?xml version="1.0" encoding="UTF-8"?>
<!DOCTYPE svg  PUBLIC '-//W3C//DTD SVG 1.1//EN'  'http://www.w3.org/Graphics/SVG/1.1/DTD/svg11.dtd'>
<svg enable-background="new 0 0 500 500" version="1.1" viewBox="0 0 500 500" xml:space="preserve" xmlns="http://www.w3.org/2000/svg">
	<path d="m63.031 148.98h147.26c4.286 0 7.75-3.464 7.75-7.75s-3.464-7.75-7.75-7.75h-147.26c-4.286 0-7.75 3.464-7.75 7.75s3.464 7.75 7.75 7.75z"/>
	<path d="m233.55 164.48h-155.02c-4.286 0-7.75 3.464-7.75 7.75s3.464 7.75 7.75 7.75h155.02c4.286 0 7.75-3.464 7.75-7.75 1e-3 -4.286-3.463-7.75-7.75-7.75z"/>
	<path d="m187.06 350.61h-108.53c-4.286 0-7.75 3.464-7.75 7.75 0 4.285 3.464 7.75 7.75 7.75h108.53c4.286 0 7.75-3.465 7.75-7.75 0-4.286-3.464-7.75-7.75-7.75z"/>
	<path d="m264.55 179.98h15.5c4.286 0 7.75-3.464 7.75-7.75s-3.464-7.75-7.75-7.75h-15.5c-4.286 0-7.75 3.464-7.75 7.75s3.464 7.75 7.75 7.75z"/>
	<path d="m109.53 381.52h-46.5c-4.286 0-7.75 3.465-7.75 7.75 0 4.286 3.464 7.75 7.75 7.75h46.5c4.286 0 7.75-3.464 7.75-7.75s-3.464-7.75-7.75-7.75z"/>
	<path d="m272.34 234.23c0 4.286 3.464 7.75 7.75 7.75h178.27c4.286 0 7.75-3.464 7.75-7.75s-3.464-7.75-7.75-7.75h-178.27c-4.286 0-7.75 3.464-7.75 7.75z"/>
	<path d="m396.37 272.98c4.285 0 7.75-3.465 7.75-7.75s-3.465-7.75-7.75-7.75h-100.77c-4.285 0-7.75 3.465-7.75 7.75s3.465 7.75 7.75 7.75h100.77z"/>
	<path d="m411.81 288.48h-77.462c-4.286 0-7.75 3.465-7.75 7.75s3.464 7.75 7.75 7.75h77.462c4.285 0 7.75-3.465 7.75-7.75s-3.465-7.75-7.75-7.75z"/>
	<path d="m303.35 288.48h-23.258c-4.286 0-7.75 3.465-7.75 7.75s3.464 7.75 7.75 7.75h23.258c4.285 0 7.75-3.465 7.75-7.75s-3.473-7.75-7.75-7.75z"/>
	<path d="m489.25 195.48h-85.498v-84.544c0.023-0.232 0.14-0.434 0.14-0.674s-0.116-0.442-0.14-0.674v-14.827c0-12.818-10.432-23.25-23.25-23.25h-356.25c-12.818 0-23.25 10.432-23.25 23.25v15.5c0 0.24 0.116 0.442 0.14 0.674v309.28c0 4.285 3.464 7.75 7.75 7.75h23.033c0.031 0 0.046 0.016 0.078 0.016s0.046-0.016 0.078-0.016h364.06c4.286 0 7.75-3.465 7.75-7.75v-85.173h85.358c4.285 0 7.75-3.465 7.75-7.75v-124.06c-1e-3 -4.286-3.466-7.75-7.751-7.75zm-465-108.47h7.905c-4.278 0-7.704 3.464-7.704 7.75s3.503 7.75 7.789 7.75c4.278 0 7.75-3.464 7.75-7.75s-3.472-7.75-7.75-7.75h23.165c-4.278 0-7.704 3.464-7.704 7.75s3.503 7.75 7.789 7.75c4.278 0 7.75-3.464 7.75-7.75s-3.472-7.75-7.75-7.75h23.165c-4.278 0-7.704 3.464-7.704 7.75s3.503 7.75 7.789 7.75c4.278 0 7.75-3.464 7.75-7.75s-3.472-7.75-7.75-7.75h301.77c4.278 0 7.75 3.472 7.75 7.75v7.75h-371.76v-7.75c0-4.278 3.472-7.75 7.75-7.75zm-7.61 31h7.61v294.45h-7.61v-294.45zm371.74 294.45h-348.63v-294.45h348.5v77.469h-139.19c-4.286 0-7.75 3.464-7.75 7.75v124.06c0 4.285 3.464 7.75 7.75 7.75h139.33v77.423h-8e-3zm93.116-92.923h-224.69v-108.56h224.69v108.56z"/>
	<path d="m94.264 210.98c4.278 0 7.75-3.464 7.75-7.75s-3.472-7.75-7.75-7.75h-0.085c-4.278 0-7.704 3.464-7.704 7.75s3.503 7.75 7.789 7.75z"/>
	<path d="m94.264 241.97c4.278 0 7.75-3.464 7.75-7.75s-3.472-7.75-7.75-7.75h-0.085c-4.278 0-7.704 3.464-7.704 7.75s3.503 7.75 7.789 7.75z"/>
	<path d="m94.264 272.95c4.278 0 7.75-3.465 7.75-7.75 0-4.286-3.472-7.75-7.75-7.75h-0.085c-4.278 0-7.704 3.464-7.704 7.75 0 4.285 3.503 7.75 7.789 7.75z"/>
	<path d="m94.264 303.94c4.278 0 7.75-3.464 7.75-7.75s-3.472-7.75-7.75-7.75h-0.085c-4.278 0-7.704 3.464-7.704 7.75s3.503 7.75 7.789 7.75z"/>
	<path d="m125.26 210.98c4.278 0 7.75-3.464 7.75-7.75s-3.472-7.75-7.75-7.75h-0.085c-4.278 0-7.704 3.464-7.704 7.75s3.503 7.75 7.789 7.75z"/>
	<path d="m156.26 210.98c4.278 0 7.75-3.464 7.75-7.75s-3.472-7.75-7.75-7.75h-0.085c-4.278 0-7.704 3.464-7.704 7.75s3.503 7.75 7.789 7.75z"/>
	<path d="m187.26 195.48h-0.085c-4.278 0-7.704 3.464-7.704 7.75s3.503 7.75 7.789 7.75c4.278 0 7.75-3.464 7.75-7.75s-3.472-7.75-7.75-7.75z"/>
	<path d="m218.26 195.48h-0.085c-4.278 0-7.704 3.464-7.704 7.75s3.503 7.75 7.789 7.75c4.278 0 7.75-3.464 7.75-7.75s-3.472-7.75-7.75-7.75z"/>
	<path d="m94.264 335.11c4.278 0 7.75-3.465 7.75-7.75 0-4.286-3.472-7.75-7.75-7.75h-0.085c-4.278 0-7.704 3.464-7.704 7.75s3.503 7.75 7.789 7.75z"/>
	<path d="m125.26 335.11c4.278 0 7.75-3.465 7.75-7.75 0-4.286-3.472-7.75-7.75-7.75h-0.085c-4.278 0-7.704 3.464-7.704 7.75s3.503 7.75 7.789 7.75z"/>
	<path d="m156.26 319.61h-0.085c-4.278 0-7.704 3.464-7.704 7.75 0 4.285 3.503 7.75 7.789 7.75 4.278 0 7.75-3.465 7.75-7.75 0-4.286-3.472-7.75-7.75-7.75z"/>
	<path d="m187.26 319.61h-0.085c-4.278 0-7.704 3.464-7.704 7.75 0 4.285 3.503 7.75 7.789 7.75 4.278 0 7.75-3.465 7.75-7.75 0-4.286-3.472-7.75-7.75-7.75z"/>
	<path d="m218.26 319.61h-0.085c-4.278 0-7.704 3.464-7.704 7.75 0 4.285 3.503 7.75 7.789 7.75 4.278 0 7.75-3.465 7.75-7.75 0-4.286-3.472-7.75-7.75-7.75z"/>
	<path d="m156.02 272.97h7.734v7.734c0 4.285 3.464 7.75 7.75 7.75s7.75-3.465 7.75-7.75v-7.734h7.75c4.286 0 7.75-3.464 7.75-7.75s-3.464-7.75-7.75-7.75h-7.75v-7.75c0-4.286-3.464-7.75-7.75-7.75s-7.75 3.464-7.75 7.75v7.75h-7.734c-4.286 0-7.75 3.464-7.75 7.75s3.463 7.75 7.75 7.75z"/>
</svg>