<?xml version="1.0" encoding="utf-8"?>
<!-- Generator: Adobe Illustrator 16.0.0, SVG Export Plug-In . SVG Version: 6.00 Build 0)  -->
<!DOCTYPE svg PUBLIC "-//W3C//DTD SVG 1.1//EN" "http://www.w3.org/Graphics/SVG/1.1/DTD/svg11.dtd">
<svg version="1.1" id="Layer_1" xmlns="http://www.w3.org/2000/svg" xmlns:xlink="http://www.w3.org/1999/xlink" x="0px" y="0px"
	 width="500px" height="500px" viewBox="0 0 500 500" enable-background="new 0 0 500 500" xml:space="preserve">
<g>
	<g>
		<path d="M220.664,242.234H71.821v-38.061l26.839-24.282c39.353-35.196,58.189-55.215,58.745-73.706
			c-0.042-12.786-7.724-19.27-22.833-19.27c-11.28,0-23.121,4.682-35.193,13.916l-8.415,6.436l-18.51-46.921l4.853-3.664
			c17.609-13.297,41.738-20.923,66.199-20.923c22.354,0,41.1,6.504,54.21,18.808c12.751,11.967,19.491,28.557,19.491,47.977
			c0,34.904-25.243,62.273-52.521,86.65l-1.215,1.019h57.194L220.664,242.234L220.664,242.234z M87.821,226.234h116.843v-20.021
			h-70.6V193.89l20.063-16.718c28.263-25.271,47.08-47.642,47.08-74.628c0-31.326-22.11-50.785-57.701-50.785
			c-18.811,0-37.271,5.148-51.611,14.264l6.372,16.151c12.108-7.478,24.285-11.259,36.307-11.259
			c28.631,0,38.833,18.273,38.833,35.375l-0.003,0.21c-0.645,24.541-20.278,46.144-64.042,85.286l-21.539,19.487v14.961H87.821z"/>
	</g>
</g>
<path d="M325.488,432.638h72.876V204.904h52.745L361.93,59.99l-89.184,144.915h52.742V432.638L325.488,432.638z M305.359,186.686
	l56.567-91.938l56.569,91.938h-38.354V414.42H343.71V186.686H305.359z"/>
<polygon points="135.463,344.853 135.463,406.5 151.462,406.5 151.461,324.462 141.079,324.462 112.81,337.912 109.137,321.162 
	151.283,301.559 177.823,301.559 177.823,406.5 193.824,406.5 193.824,285.559 147.745,285.559 90.763,312.063 101.497,361.013 "/>
</svg>
