<?xml version="1.0" encoding="utf-8"?>
<!-- Generator: Adobe Illustrator 16.0.0, SVG Export Plug-In . SVG Version: 6.00 Build 0)  -->
<!DOCTYPE svg PUBLIC "-//W3C//DTD SVG 1.1//EN" "http://www.w3.org/Graphics/SVG/1.1/DTD/svg11.dtd">
<svg version="1.1" id="Layer_1" xmlns="http://www.w3.org/2000/svg" xmlns:xlink="http://www.w3.org/1999/xlink" x="0px" y="0px"
	 width="500px" height="500px" viewBox="0 0 500 500" enable-background="new 0 0 500 500" xml:space="preserve">
<path d="M316.768,177.3H186.633c-4.489,0-8.134,3.635-8.134,8.133s3.645,8.134,8.134,8.134h130.135c4.487,0,8.133-3.636,8.133-8.134
	S321.256,177.3,316.768,177.3z"/>
<path d="M157.15,154.682l-34.981,27.986l-11.118-11.117c-3.18-3.181-8.321-3.181-11.501,0c-3.18,3.179-3.18,8.32,0,11.5
	l16.267,16.267c1.578,1.578,3.659,2.383,5.75,2.383c1.789,0,3.586-0.586,5.075-1.781l40.667-32.533
	c3.514-2.813,4.075-7.93,1.269-11.436C165.78,152.436,160.655,151.875,157.15,154.682z"/>
<path d="M316.768,266.768H186.633c-4.489,0-8.134,3.635-8.134,8.133s3.645,8.135,8.134,8.135h130.135
	c4.487,0,8.133-3.637,8.133-8.135S321.256,266.768,316.768,266.768z"/>
<path d="M157.15,244.148l-34.981,27.987l-11.118-11.117c-3.18-3.182-8.321-3.182-11.501,0c-3.18,3.181-3.18,8.319,0,11.5
	l16.267,16.268c1.578,1.576,3.659,2.384,5.75,2.384c1.789,0,3.586-0.585,5.075-1.782l40.667-32.531
	c3.514-2.813,4.075-7.932,1.269-11.436C165.78,241.903,160.655,241.342,157.15,244.148z"/>
<path d="M285.223,356.232H184.777c-3.464,0-6.278,3.637-6.278,8.135c0,4.497,2.813,8.133,6.278,8.133h100.446
	c3.464,0,6.277-3.636,6.277-8.133C291.5,359.869,288.688,356.232,285.223,356.232z"/>
<path d="M157.15,333.615L122.169,361.6l-11.118-11.115c-3.18-3.183-8.321-3.183-11.501,0c-3.18,3.18-3.18,8.318,0,11.501
	l16.267,16.266c1.578,1.579,3.659,2.383,5.75,2.383c1.789,0,3.586-0.584,5.075-1.781l40.667-32.531
	c3.514-2.813,4.075-7.932,1.269-11.438C165.78,331.369,160.655,330.809,157.15,333.615z"/>
<path d="M397,461.5c-51.832,0-94-42.168-94-94s42.168-94,94-94s94,42.168,94,94S448.832,461.5,397,461.5z M397,289.5
	c-43.01,0-78,34.99-78,78s34.99,78,78,78s78-34.99,78-78S440.01,289.5,397,289.5z"/>
<path d="M389.966,467.667v10.567l-349.733-0.002V22.767H276.1v113.867h113.866v126.033h16.27V125.133L287.602,6.5H23.967v488
	h382.269v-26.833H389.966z M292.367,34.267l86.099,86.099h-86.099V34.267z"/>
<g enable-background="new    ">
	<path d="M390.611,425.265V411.34c-9.045-0.289-18.09-2.874-23.258-6.316l3.875-13.496c5.601,3.303,13.641,6.316,22.396,6.316
		c9.046,0,15.22-4.451,15.22-11.343c0-6.462-5.024-10.625-15.647-14.501c-15.075-5.456-24.839-12.348-24.839-25.7
		c0-12.346,8.615-21.822,23.113-24.406v-14.069h11.771v13.353c9.047,0.288,15.221,2.441,19.813,4.738l-3.878,13.209
		c-3.443-1.58-9.762-4.882-19.522-4.882c-10.051,0-13.641,5.168-13.641,10.051c0,5.887,5.167,9.188,17.372,14.07
		c16.079,6.027,23.257,13.779,23.257,26.559c0,12.205-8.47,22.973-24.261,25.559v14.786L390.611,425.265L390.611,425.265z"/>
</g>
</svg>
