<?xml version="1.0" encoding="UTF-8"?>
<svg enable-background="new 0 0 500 500" version="1.1" viewBox="0 0 500 500" xml:space="preserve" xmlns="http://www.w3.org/2000/svg">
	<path d="m174.92 216.34c18.81 0 34.111-15.3 34.111-34.104 0-18.816-15.301-34.116-34.111-34.116-18.809 0-34.11 15.3-34.11 34.109 0 18.811 15.301 34.111 34.11 34.111zm0-55.97c12.054 0 21.86 9.813 21.86 21.86s-9.807 21.859-21.86 21.859c-12.054 0-21.86-9.806-21.86-21.854s9.806-21.865 21.86-21.865z"/>
	<path d="m95.292 68.5v318.5h306.25v-318.5h-306.25zm12.25 12.25h281.75v163.7l-63.235-57.968c-1.2-1.096-2.779-1.642-4.41-1.604-1.623 0.073-3.153 0.79-4.25 1.99l-59.989 65.702-29.05-29.05c-2.29-2.285-5.953-2.401-8.378-0.27l-102.5 90.246h-9.934v-232.75zm281.75 294h-281.75v-49.001h281.75v49.001zm-253.28-61.25 87.734-77.243 63.101 63.094c2.394 2.395 6.265 2.395 8.66 0s2.396-6.266 0-8.662l-29.441-29.442 56.232-61.581 66.989 61.403v52.43l-253.28 1e-3z"/>
<path d="m434 267.14c-1.738 0-3.464-0.732-4.677-2.161-2.199-2.579-1.888-6.453 0.692-8.652l34.23-29.152-34.23-29.151c-2.58-2.196-2.892-6.07-0.692-8.653 2.195-2.579 6.074-2.891 8.649-0.692l39.723 33.824c1.37 1.168 2.158 2.874 2.158 4.672 0 1.802-0.788 3.508-2.158 4.676l-39.723 33.824c-1.154 0.982-2.569 1.465-3.972 1.465z"/>
<path d="m61.182 265.67-39.723-33.824c-1.37-1.168-2.158-2.874-2.158-4.676 0-1.798 0.788-3.504 2.158-4.672l39.723-33.824c2.575-2.199 6.454-1.887 8.649 0.692 2.199 2.583 1.888 6.458-0.692 8.653l-34.23 29.151 34.23 29.152c2.58 2.199 2.892 6.073 0.692 8.652-1.213 1.429-2.938 2.161-4.677 2.161-1.402 0-2.817-0.483-3.972-1.465z"/>
	<rect x="190.5" y="440.5" width="12" height="12"/>
	<rect x="222.25" y="440.5" width="12" height="12"/>
	<rect x="255.5" y="440.5" width="12" height="12"/>
	<rect x="287.25" y="440.5" width="12" height="12"/>
</svg>