<?xml version="1.0" encoding="UTF-8"?>
<!DOCTYPE svg  PUBLIC '-//W3C//DTD SVG 1.1//EN'  'http://www.w3.org/Graphics/SVG/1.1/DTD/svg11.dtd'>
<svg enable-background="new 0 0 500 500" version="1.1" viewBox="0 0 500 500" xml:space="preserve" xmlns="http://www.w3.org/2000/svg">
			<rect x="168.56" y="46.452" width="163.47" height="16.348"/>
			<path d="m409.68 312.09c0-15.772-12.835-28.607-28.608-28.607h-16.346v-114.43h-16.348v114.43h-20.434c-15.773 0-28.608 12.836-28.608 28.607 0 8.009 3.329 15.235 8.65 20.434-5.321 5.199-8.65 12.427-8.65 20.436 0 5.51 1.641 10.615 4.353 14.985-9.778 4.554-16.612 14.407-16.612 25.882 0 4.405 1.084 8.529 2.87 12.26h-64.172c0-24.992-12.524-47.108-31.625-60.407 18.47-7.041 31.625-24.935 31.625-45.85 0-4.513-3.656-8.173-8.174-8.173h-65.389v-81.736h-16.347v81.736c-13.521 0-24.521 11-24.521 24.521v179.82h16.347v-179.82c0-4.505 3.664-8.173 8.173-8.173h72.524c-3.632 14.083-16.451 24.52-31.656 24.52h-24.521c-4.518 0-8.173 3.661-8.173 8.175 0 4.513 3.655 8.173 8.173 8.173 31.545 0 57.216 25.667 57.216 57.215v8.175c0 4.513 3.656 8.173 8.173 8.173h47.825c-1.787 3.73-2.87 7.856-2.87 12.261 0 15.772 12.835 28.607 28.607 28.607v32.693h16.348v-32.694h36.78c15.773 0 28.608-12.836 28.608-28.607 0-4.451-1.111-8.616-2.934-12.377 15.229-0.621 27.454-13.113 27.454-28.491 0-5.511-1.64-10.616-4.353-14.986 9.778-4.554 16.612-14.407 16.612-25.881 0-8.009-3.329-15.236-8.649-20.436 5.323-5.199 8.652-12.425 8.652-20.434zm-65.389 134.86h-53.128c-6.761 0-12.261-5.501-12.261-12.261 0-6.761 5.5-12.261 12.261-12.261h53.128c6.762 0 12.261 5.5 12.261 12.261 0 6.76-5.499 12.261-12.261 12.261zm24.522-40.869h-53.128c-6.761 0-12.26-5.499-12.26-12.26s5.499-12.26 12.26-12.26h53.129c6.76 0 12.259 5.499 12.259 12.26s-5.501 12.26-12.26 12.26zm12.258-40.868h-53.126c-6.761 0-12.261-5.499-12.261-12.259 0-6.762 5.5-12.261 12.261-12.261h53.127c6.762 0 12.262 5.499 12.262 12.261-1e-3 6.76-5.501 12.259-12.263 12.259zm0-40.868h-53.127c-6.761 0-12.261-5.5-12.261-12.261 0-6.76 5.5-12.261 12.261-12.261h53.127c6.762 0 12.262 5.501 12.262 12.261 0 6.761-5.5 12.261-12.262 12.261z"/>
			<path d="m127.66 109.62c-0.168-2.348-1.333-4.51-3.209-5.931l-8.508-6.45c-2.036-10.304-11.08-18.094-21.895-18.094-12.204 0-22.159 9.921-22.318 22.178-6.53-1.142-12.771-3.648-18.359-7.412l-2.849-1.925c-2.498-1.687-5.739-1.871-8.413-0.442-2.666 1.417-4.334 4.194-4.334 7.216v6.705c0 9.85 2.969 19.247 8.478 27.137l-6.114 6.186c-2.322 2.343-3.002 5.851-1.732 8.896 1.268 3.042 4.246 5.024 7.542 5.024h39.606c15.796 0 28.854-12.042 30.611-27.495l9.155-9.263c1.652-1.672 2.506-3.98 2.339-6.33zm-25.28 6.283c-1.517 1.528-2.363 3.595-2.363 5.747 0 8.109-6.49 14.71-14.464 14.71h-20.792c1.293-2.978 0.734-6.57-1.684-9.017-3.815-3.863-6.545-8.724-7.927-13.965 7.799 3.29 16.18 4.998 24.753 4.998 4.518 0 8.174-3.659 8.174-8.173v-8.583c0-3.38 2.682-6.129 5.971-6.129s5.971 2.749 5.971 6.129c0 2.559 1.198 4.969 3.232 6.514l3.896 2.95-4.767 4.819z"/>
			<path d="m274.81 144.54v-16.348h-24.521c-4.518 0-8.173 3.66-8.173 8.175v24.52h-16.347v16.348h16.347v32.694h16.346v-32.694h16.348v-16.348h-16.348v-16.347h16.348z"/>
			<path d="m299.33 95.494h-98.083c-13.521 0-24.521 10.999-24.521 24.52v98.084c0 13.521 11 24.521 24.521 24.521h98.083c13.521 0 24.521-11 24.521-24.521v-98.084c0-13.521-11-24.52-24.521-24.52zm8.175 122.6c0 4.505-3.665 8.173-8.175 8.173h-98.083c-4.51 0-8.174-3.667-8.174-8.173v-98.084c0-4.505 3.664-8.173 8.174-8.173h98.083c4.51 0 8.175 3.667 8.175 8.173v98.084z"/>
			<path d="m127.69 46.452h-98.084c-13.521 0-24.521 11-24.521 24.521v98.084c0 13.521 11 24.52 24.521 24.52h98.083c13.521 0 24.521-10.999 24.521-24.52v-98.084c0-13.521-10.999-24.521-24.52-24.521zm8.173 122.6c0 4.505-3.663 8.173-8.173 8.173h-98.084c-4.509 0-8.173-3.667-8.173-8.173v-98.084c0-4.505 3.664-8.173 8.173-8.173h98.083c4.51 0 8.173 3.667 8.173 8.173v98.084z"/>
			<path d="m470.98 5.584h-98.082c-13.521 0-24.521 11-24.521 24.521v98.082c0 13.521 11.001 24.521 24.521 24.521h98.082c13.521 0 24.521-11 24.521-24.521v-98.082c0-13.521-11-24.521-24.521-24.521zm8.173 122.6c0 4.505-3.664 8.175-8.174 8.175h-98.082c-4.512 0-8.174-3.669-8.174-8.175v-40.869h17.174c3.799 18.63 20.307 32.694 40.041 32.694s36.244-14.064 40.042-32.694h17.173v40.869zm-81.735-49.042c0-13.521 11-24.521 24.521-24.521s24.521 11 24.521 24.521-11 24.521-24.521 24.521-24.521-11-24.521-24.521zm81.735-8.173h-17.173c-3.798-18.63-20.308-32.694-40.042-32.694s-36.242 14.064-40.041 32.694h-17.174v-40.868c0-4.506 3.662-8.175 8.174-8.175h98.082c4.51 0 8.174 3.668 8.174 8.175v40.868z"/>
			<rect x="242.12" y="340.7" width="16.346" height="16.347"/>
</svg>