<?xml version="1.0" encoding="UTF-8"?>
<svg enable-background="new 0 0 60 60" version="1.1" viewBox="0 0 60 60" xml:space="preserve" xmlns="http://www.w3.org/2000/svg">
	<path d="m42 12h-24c-9.925 0-18 8.075-18 18s8.075 18 18 18h24c9.925 0 18-8.075 18-18s-8.075-18-18-18zm0 34h-24c-8.822 0-16-7.178-16-16s7.178-16 16-16h24c8.822 0 16 7.178 16 16s-7.178 16-16 16z"/>
	<path d="m42 17c-7.168 0-13 5.832-13 13s5.832 13 13 13 13-5.832 13-13-5.832-13-13-13zm0 24c-6.065 0-11-4.935-11-11s4.935-11 11-11 11 4.935 11 11-4.935 11-11 11z"/>
	<path d="m17 21c-0.553 0-1 0.447-1 1v16c0 0.553 0.447 1 1 1s1-0.447 1-1v-16c0-0.553-0.447-1-1-1z"/>
</svg>