<?xml version="1.0" encoding="UTF-8"?>
<!DOCTYPE svg  PUBLIC '-//W3C//DTD SVG 1.1//EN'  'http://www.w3.org/Graphics/SVG/1.1/DTD/svg11.dtd'>
<svg enable-background="new 0 0 500 500" version="1.1" viewBox="0 0 500 500" xml:space="preserve" xmlns="http://www.w3.org/2000/svg">
	<path d="m474.99 65.565h-301.71v-18.857c0-5.204-4.224-9.428-9.428-9.428h-141.42c-5.203 0-9.428 4.224-9.428 9.428v405.42c0 5.203 4.225 9.428 9.428 9.428h452.56c5.203 0 9.428-4.225 9.428-9.428v-377.13c-1e-3 -5.204-4.226-9.428-9.429-9.428zm-9.428 18.857v28.285h-84.855v-28.285h84.855zm-103.71 0v28.285h-84.854v-28.285h84.854zm-103.71 0v28.285h-84.855v-28.285h84.855zm-103.71-28.285v56.57h-122.57v-56.57h122.57zm-122.57 386.56v-311.14h433.7v311.14h-433.7zm18.857-358.28c0-5.205 4.223-9.429 9.428-9.429h65.997c5.205 0 9.429 4.224 9.429 9.429 0 5.204-4.224 9.428-9.429 9.428h-65.997c-5.205 0-9.428-4.225-9.428-9.428z"/>
</svg>