<?xml version="1.0" encoding="utf-8"?>
<!-- Generator: Adobe Illustrator 16.0.0, SVG Export Plug-In . SVG Version: 6.00 Build 0)  -->
<!DOCTYPE svg PUBLIC "-//W3C//DTD SVG 1.1//EN" "http://www.w3.org/Graphics/SVG/1.1/DTD/svg11.dtd">
<svg version="1.1" id="Layer_1" xmlns="http://www.w3.org/2000/svg" xmlns:xlink="http://www.w3.org/1999/xlink" x="0px" y="0px"
	 width="500px" height="500px" viewBox="0 0 500 500" enable-background="new 0 0 500 500" xml:space="preserve">
<g>
	<g>
		<path d="M343.559,313.433c-0.323-0.034-47.124,1.347-54.083-48.806c7.732-5.395,14.858-12.398,21.137-20.896
			c12.213-16.533,20.082-37.273,22.886-59.707c0.963-0.871,1.761-1.955,2.297-3.233c5.072-12.082,7.644-24.982,7.644-38.345
			c0-51.288-38.688-93.015-86.246-93.015c-12.437,0-24.504,2.865-35.9,8.523c-4.348,0.332-8.608,1.096-12.693,2.276
			c-19.533,5.644-35.427,20.125-44.756,40.779c-9.058,20.054-10.842,43.661-5.024,66.474c1.229,4.819,2.791,9.555,4.645,14.08
			c0.501,1.224,1.25,2.268,2.148,3.127c4.541,35.015,21.201,64.027,43.918,79.867c-6.98,50.237-53.764,48.843-54.086,48.877
			c-33.655,1.142-60.688,28.858-60.688,62.786v70.626c0,5.056,4.098,9.154,9.154,9.154h80.386h130.409h80.388
			c5.055,0,9.154-4.099,9.154-9.154v-70.626C404.245,342.291,377.215,314.574,343.559,313.433z M213.681,77.821
			c3.341-0.966,6.869-1.539,10.487-1.701c1.343-0.06,2.655-0.415,3.846-1.041c9.267-4.869,19.085-7.338,29.179-7.338
			c37.46,0,67.937,33.513,67.937,74.706c0,1.236-0.034,2.466-0.088,3.691c-7.267-7.378-17.362-11.964-28.51-11.964h-62.392
			c-3.712,0-7.235-1.166-10.19-3.372c-2.523-1.883-4.473-4.414-5.638-7.318c-1.805-4.493-6.252-7.303-11.095-6.999
			c-4.86,0.31-8.949,3.684-10.176,8.4c-3.616,13.894-10.825,26.691-20.716,37.069C167.121,124.077,183.731,86.474,213.681,77.821z
			 M205.716,236.151c-11.911-14.553-19.713-34.204-22.186-55.718c11.552-10.295,20.684-23.106,26.628-37.317
			c0.902,0.832,1.851,1.619,2.839,2.358c6.144,4.584,13.454,7.009,21.144,7.009h62.392c8.828,0,16.437,5.295,19.832,12.873
			c-0.001,0.065-0.01,0.127-0.01,0.192c0,51.677-29.984,93.719-66.842,93.719C233.474,259.269,217.918,251.059,205.716,236.151z
			 M226.751,273.547c7.257,2.626,14.89,4.03,22.762,4.03c7.81,0,15.441-1.358,22.746-3.982
			c3.352,17.463,13.061,32.684,26.622,43.161l-48.069,68.456c-0.314,0.446-0.75,0.673-1.296,0.673c-0.546,0-0.981-0.227-1.294-0.672
			l-48.082-68.473C213.704,306.251,223.41,291.021,226.751,273.547z M385.937,437.69h-71.232H184.295h-71.232v-61.472
			c0-24.555,19.977-44.531,44.532-44.531c0.333,0,15.064-0.357,26.704-5.647l48.938,69.693c3.719,5.299,9.805,8.461,16.278,8.461
			c0,0,0,0,0.001,0c6.473,0,12.56-3.162,16.279-8.461l48.929-69.683c13.275,5.638,26.348,5.638,26.681,5.638
			c24.556,0,44.531,19.977,44.531,44.531V437.69z"/>
	</g>
</g>
</svg>
