<?xml version="1.0" encoding="utf-8"?>
<!-- Generator: Adobe Illustrator 16.0.0, SVG Export Plug-In . SVG Version: 6.00 Build 0)  -->
<!DOCTYPE svg PUBLIC "-//W3C//DTD SVG 1.1//EN" "http://www.w3.org/Graphics/SVG/1.1/DTD/svg11.dtd">
<svg version="1.1" id="Layer_1" xmlns="http://www.w3.org/2000/svg" xmlns:xlink="http://www.w3.org/1999/xlink" x="0px" y="0px"
	 width="500px" height="500px" viewBox="0 0 500 500" enable-background="new 0 0 500 500" xml:space="preserve">
<g>
	<g>
		<path d="M137.053,100.604h-15.141c2.278-16.859,11.6-17.706,15.891-18.096c4.285-0.391,7.566-3.983,7.566-8.287V49.323
			c0-2.287-0.943-4.474-2.605-6.046c-1.662-1.571-3.9-2.386-6.183-2.26c-26.3,1.479-57.651,14.758-57.651,69.621v43.299
			c0,7.228,5.881,13.108,13.107,13.108h45.016c7.229,0,13.108-5.88,13.107-13.109v-40.223
			C150.16,106.485,144.279,100.604,137.053,100.604z M133.521,150.403H95.57v-39.765c0-38.282,17.024-48.974,33.158-51.992v8.749
			c-11.143,3.391-23.967,13.407-23.967,41.53c0,4.596,3.727,8.32,8.32,8.32h20.438V150.403z"/>
	</g>
</g>
<g>
	<g>
		<path d="M222.115,100.604h-15.141c2.277-16.859,11.6-17.706,15.89-18.096c4.286-0.391,7.565-3.983,7.565-8.287V49.323
			c0-2.287-0.941-4.474-2.604-6.046c-1.662-1.571-3.902-2.386-6.184-2.26c-26.301,1.479-57.65,14.758-57.65,69.621v43.299
			c0,7.228,5.88,13.108,13.107,13.108h45.016c7.227,0,13.108-5.88,13.107-13.11v-40.222
			C235.223,106.485,229.342,100.604,222.115,100.604z M218.582,150.404h-37.949v-39.766c0-38.282,17.023-48.974,33.156-51.992v8.749
			c-11.141,3.391-23.964,13.407-23.964,41.53c0,4.596,3.724,8.32,8.32,8.32h20.437V150.404z"/>
	</g>
</g>
<g>
	<g>
		<path d="M312.121,105.785h-10.484c-4.596,0-8.32,3.725-8.32,8.32c0,4.596,3.725,8.32,8.32,8.32h10.484
			c72.365,0,131.238,58.874,131.238,131.239c0,61.763-43.804,115.778-104.159,128.437c-3.853,0.809-6.612,4.206-6.612,8.143v48.345
			l-51.248-51.248c-1.56-1.561-3.677-2.438-5.883-2.438h-93.578c-72.365,0-131.238-58.873-131.238-131.238
			c0-22.303,5.693-44.327,16.466-63.691c2.235-4.016,0.79-9.082-3.226-11.316c-4.016-2.235-9.082-0.789-11.316,3.227
			C40.419,203.716,34,228.538,34,253.665c0,81.541,66.338,147.879,147.879,147.879h90.131l63.016,63.016
			c1.591,1.591,3.719,2.437,5.884,2.437c1.073,0,2.154-0.207,3.183-0.635c3.109-1.286,5.137-4.32,5.137-7.686v-61.838
			c30.105-7.801,57.327-25.159,77.218-49.375C448.084,321.123,460,287.812,460,253.665C460,172.124,393.662,105.786,312.121,105.785
			z"/>
	</g>
</g>
<g>
	<g>
		<path d="M349.394,188.679H144.608c-4.597,0-8.32,3.725-8.32,8.32c0,4.595,3.724,8.32,8.32,8.32h204.784
			c4.596,0,8.321-3.726,8.321-8.32C357.714,192.404,353.989,188.679,349.394,188.679z"/>
	</g>
</g>
<g>
	<g>
		<path d="M349.394,233.054H144.608c-4.597,0-8.32,3.725-8.32,8.32c0,4.595,3.724,8.32,8.32,8.32h204.784
			c4.596,0,8.321-3.726,8.321-8.32C357.714,236.779,353.989,233.054,349.394,233.054z"/>
	</g>
</g>
<g>
	<g>
		<path d="M349.394,277.428H144.608c-4.597,0-8.32,3.727-8.32,8.32c0,4.595,3.724,8.32,8.32,8.32h204.784
			c4.596,0,8.321-3.726,8.321-8.32C357.714,281.154,353.989,277.428,349.394,277.428z"/>
	</g>
</g>
<g>
	<g>
		<path d="M349.393,321.805H240.236c-4.596,0-8.32,3.726-8.32,8.32c0,4.594,3.725,8.32,8.32,8.32h109.156
			c4.596,0,8.32-3.727,8.32-8.32C357.713,325.53,353.988,321.805,349.393,321.805z"/>
	</g>
</g>
</svg>
