<?xml version="1.0" encoding="UTF-8"?>
<!DOCTYPE svg  PUBLIC '-//W3C//DTD SVG 1.1//EN'  'http://www.w3.org/Graphics/SVG/1.1/DTD/svg11.dtd'>
<svg enable-background="new 0 0 500 500" version="1.1" viewBox="0 0 500 500" xml:space="preserve" xmlns="http://www.w3.org/2000/svg">
	<path d="m205.04 237.86c1.283 0.703 2.703 1.053 4.115 1.053 1.599 0 3.191-0.454 4.594-1.335l94.1-59.881c2.464-1.575 3.961-4.295 3.961-7.221 0-2.925-1.497-5.646-3.961-7.219l-94.1-59.883c-2.652-1.668-5.963-1.779-8.717-0.282-2.729 1.506-4.431 4.38-4.431 7.502v119.76c0 3.123 1.702 5.997 4.439 7.502zm12.669-111.69 69.617 44.304-69.617 44.304v-88.608z"/>
	<path d="m20.955 16.5v470.5h461.94v-470.5h-461.94zm444.84 17.109v282.3h-427.73v-282.3h427.73zm-427.73 436.28v-136.87h427.73v136.87h-427.73z"/>
	<path d="m423.02 392.9h-205.31v-17.109c0-4.731-3.824-8.555-8.554-8.555-4.731 0-8.555 3.823-8.555 8.555v17.109h-34.218c-4.731 0-8.555 3.823-8.555 8.555 0 4.73 3.824 8.555 8.555 8.555h34.218v17.108c0 4.73 3.824 8.554 8.555 8.554 4.73 0 8.554-3.823 8.554-8.554v-17.108h205.31c4.729 0 8.553-3.824 8.553-8.555-1e-3 -4.731-3.824-8.555-8.553-8.555z"/>
	<path d="m80.836 367.24c-4.73 0-8.554 3.823-8.554 8.555v51.327c0 4.73 3.824 8.554 8.554 8.554 4.731 0 8.555-3.823 8.555-8.554v-51.327c0-4.731-3.824-8.555-8.555-8.555z"/>
	<path d="m115.06 367.24c-4.731 0-8.555 3.823-8.555 8.555v51.327c0 4.73 3.824 8.554 8.555 8.554 4.73 0 8.555-3.823 8.555-8.554v-51.327c0-4.731-3.825-8.555-8.555-8.555z"/>
</svg>