<?xml version="1.0" encoding="utf-8"?>
<!DOCTYPE svg PUBLIC "-//W3C//DTD SVG 1.1//EN" "http://www.w3.org/Graphics/SVG/1.1/DTD/svg11.dtd">
<svg version="1.1" xmlns="http://www.w3.org/2000/svg" xmlns:xlink="http://www.w3.org/1999/xlink" x="0px" y="0px"
	 width="46.063px" height="45.188px" viewBox="0 0 46.063 45.188" enable-background="new 0 0 46.063 45.188" xml:space="preserve">
<g id="Layer_2">
	<path fill="#84D155" d="M20.208,17.797c0,1.104-0.896,2-2,2H3.042c-1.104,0-2-0.896-2-2V2.547c0-1.104,0.896-2,2-2h15.167
		c1.104,0,2,0.896,2,2V17.797z"/>
	<path fill="#DD506A" d="M20.208,41.631c0,1.104-0.896,2-2,2H3.042c-1.104,0-2-0.896-2-2v-15.25c0-1.105,0.896-2,2-2h15.167
		c1.104,0,2,0.895,2,2V41.631z"/>
	<path fill="#F07339" d="M45.063,17.797c0,1.104-0.896,2-2,2H27.896c-1.104,0-2-0.896-2-2V2.547c0-1.104,0.896-2,2-2h15.167
		c1.104,0,2,0.896,2,2V17.797z"/>
	<g>
		<path fill="#464ED2" d="M34.521,43.798c0,0.414-0.336,0.75-0.75,0.75l0,0c-0.414,0-0.75-0.336-0.75-0.75V24.641
			c0-0.414,0.336-0.75,0.75-0.75l0,0c0.414,0,0.75,0.336,0.75,0.75v6.109V43.798z"/>
		<path fill="#464ED2" d="M43.246,33.325c0.414,0,0.75,0.336,0.75,0.75l0,0c0,0.414-0.336,0.75-0.75,0.75H24.088
			c-0.414,0-0.75-0.336-0.75-0.75l0,0c0-0.414,0.336-0.75,0.75-0.75H43.246z"/>
	</g>
</g>
</svg>
