<?xml version="1.0" encoding="UTF-8"?>
<svg enable-background="new 0 0 25.913 25.913" version="1.1" viewBox="0 0 25.913 25.913" xml:space="preserve" xmlns="http://www.w3.org/2000/svg">
	<path d="m0.033 3.481c0-1.913 1.551-3.467 3.466-3.467 1.723 2e-3 3.153 1.259 3.421 2.906 1.87-0.439 3.917 0.071 5.375 1.529l0.199 0.2-2.558 2.558-0.198-0.199c-0.83-0.83-2.176-0.83-3.007 1e-3 -0.833 0.832-0.832 2.182-4e-3 3.01l0.501 0.5 2.558 2.556 2.706 2.704-2.556 2.559-5.267-5.263-0.499-0.499c-1.546-1.546-2.024-3.754-1.438-5.712-1.545-0.349-2.699-1.73-2.699-3.383zm7.498 6.734 2.558 2.557 2.707-2.703 2.558-2.557 0.5-0.499c0.833-0.833 2.176-0.832 3.003-4e-3 0.83 0.829 0.83 2.176-1e-3 3.006l-0.197 0.199 2.557 2.558 0.199-0.2c1.529-1.531 2.016-3.709 1.457-5.652 1.699-0.223 3.01-1.677 3.01-3.438 1e-3 -1.914-1.551-3.467-3.466-3.467-1.752 0-3.201 1.301-3.435 2.989-1.95-0.572-4.145-0.088-5.684 1.45l-0.5 0.498-2.559 2.558-2.707 2.705zm15.403 8.784c0.459-1.882-0.049-3.952-1.52-5.422l-0.502-0.503-2.557-2.558-2.699-2.702-2.559 2.556 2.701 2.704 2.557 2.558 0.5 0.501c0.834 0.834 0.832 2.177 5e-3 3.004-0.83 0.83-2.177 0.83-3.007-1e-3l-0.197-0.196-2.556 2.56 0.196 0.195c1.557 1.556 3.786 2.032 5.754 1.428 0.319 1.584 1.719 2.775 3.396 2.775 1.914 0 3.467-1.552 3.467-3.467 1e-3 -1.749-1.294-3.196-2.979-3.432zm-4.881-3.064-2.557-2.558-2.701 2.704-2.557 2.557-0.5 0.501c-0.828 0.829-2.177 0.83-3.01-3e-3 -0.83-0.831-0.831-2.176-1e-3 -3.007l0.198-0.196-2.559-2.556-0.196 0.194c-1.487 1.487-1.988 3.586-1.504 5.484-1.528 0.36-2.666 1.734-2.666 3.374 0 1.914 1.552 3.467 3.467 3.467 1.647-2e-3 3.026-1.148 3.379-2.689 1.89 0.469 3.973-0.033 5.45-1.51l0.501-0.502 2.556-2.56 2.7-2.7z" fill="#000000"/>
</svg>