<?xml version="1.0" encoding="UTF-8"?>
<svg enable-background="new 0 0 512 512" version="1.1" viewBox="0 0 512 512" xml:space="preserve" xmlns="http://www.w3.org/2000/svg">
<path d="m373.33 117.33h-234.67c-76.584 0-138.67 62.084-138.67 138.67s62.083 138.67 138.67 138.67h234.67c76.583 0 138.67-62.084 138.67-138.67s-62.083-138.67-138.67-138.67z" fill="#CFD8DC"/>
<circle cx="138.67" cy="256" r="96" fill="#F44336"/>
<g fill="#455A64">
	<path d="m288 309.33c-17.673 0-32-14.327-32-32v-42.667c0-17.673 14.327-32 32-32s32 14.327 32 32v42.667c0 17.673-14.327 32-32 32zm0-85.333c-5.891 0-10.667 4.776-10.667 10.667v42.667c0 5.891 4.776 10.667 10.667 10.667s10.667-4.776 10.667-10.667v-42.667c0-5.891-4.776-10.667-10.667-10.667z"/>
	<path d="m352 309.33c-5.891 0-10.667-4.776-10.667-10.667v-85.333c0-5.891 4.776-10.667 10.667-10.667h32c5.891 0 10.667 4.776 10.667 10.667s-4.776 10.667-10.667 10.667h-21.333v74.667c0 5.891-4.776 10.666-10.667 10.666z"/>
	<path d="m373.33 266.67h-21.333c-5.891 0-10.667-4.776-10.667-10.667s4.776-10.667 10.667-10.667h21.333c5.891 0 10.667 4.776 10.667 10.667s-4.776 10.667-10.667 10.667z"/>
	<path d="m416 309.33c-5.891 0-10.667-4.776-10.667-10.667v-85.333c0-5.891 4.776-10.667 10.667-10.667h32c5.891 0 10.667 4.776 10.667 10.667s-4.776 10.667-10.667 10.667h-21.333v74.667c0 5.891-4.776 10.666-10.667 10.666z"/>
	<path d="m437.33 266.67h-21.333c-5.891 0-10.667-4.776-10.667-10.667s4.776-10.667 10.667-10.667h21.333c5.891 0 10.667 4.776 10.667 10.667s-4.776 10.667-10.667 10.667z"/>
</g>
</svg>