<?xml version="1.0" encoding="UTF-8"?>
<svg enable-background="new 0 0 512 512" version="1.1" viewBox="0 0 512 512" xml:space="preserve" xmlns="http://www.w3.org/2000/svg">
<path d="m373.33 117.33h-234.67c-76.584 0-138.67 62.084-138.67 138.67s62.083 138.67 138.67 138.67h234.67c76.583 0 138.67-62.084 138.67-138.67s-62.083-138.67-138.67-138.67z" fill="#CFD8DC"/>
<circle cx="373.33" cy="256" r="96" fill="#4CAF50"/>
<g fill="#455A64">
	<path d="m117.33 309.33c-17.673 0-32-14.327-32-32v-42.667c0-17.673 14.327-32 32-32s32 14.327 32 32v42.667c0 17.673-14.327 32-32 32zm0-85.333c-5.891 0-10.667 4.776-10.667 10.667v42.667c0 5.891 4.776 10.667 10.667 10.667s10.667-4.777 10.667-10.668v-42.667c0-5.89-4.776-10.666-10.667-10.666z"/>
	<path d="m224 309.33c-4.037 0-7.728-2.279-9.536-5.888l-22.464-44.928v40.149c0 5.891-4.776 10.667-10.667 10.667s-10.667-4.776-10.667-10.667v-85.333c6e-3 -4.941 3.405-9.232 8.213-10.368 4.819-1.186 9.812 1.151 11.989 5.611l22.464 44.907v-40.149c0-5.891 4.776-10.667 10.667-10.667s10.667 4.776 10.667 10.667v85.333c-6e-3 4.941-3.405 9.232-8.213 10.368-0.802 0.202-1.626 0.302-2.453 0.298z"/>
</g>
</svg>